<?xml version="1.0" standalone="no"?>
<!DOCTYPE svg PUBLIC "-//W3C//DTD SVG 1.1//EN" "http://www.w3.org/Graphics/SVG/1.1/DTD/svg11.dtd" >
<svg xmlns="http://www.w3.org/2000/svg">
<metadata>
Created by FontForge 20120731 at Mon Feb 29 16:22:00 2016
 By Ads
</metadata>
<defs>
<font id="iconfont" horiz-adv-x="1024" >
  <font-face 
    font-family="iconfont"
    font-weight="500"
    font-stretch="normal"
    units-per-em="1024"
    panose-1="2 0 6 3 0 0 0 0 0 0"
    ascent="896"
    descent="-128"
    x-height="792"
    bbox="13 -196 993 859"
    underline-thickness="50"
    underline-position="-100"
    unicode-range="U+0078-E615"
  />
<missing-glyph horiz-adv-x="374" 
d="M34 0v682h272v-682h-272zM68 34h204v614h-204v-614z" />
    <glyph glyph-name=".notdef" horiz-adv-x="374" 
d="M34 0v682h272v-682h-272zM68 34h204v614h-204v-614z" />
    <glyph glyph-name=".null" horiz-adv-x="0" 
 />
    <glyph glyph-name="nonmarkingreturn" horiz-adv-x="341" 
 />
    <glyph glyph-name="x" unicode="x" horiz-adv-x="1001" 
d="M281 543q-27 -1 -53 -1h-83q-18 0 -36.5 -6t-32.5 -18.5t-23 -32t-9 -45.5v-76h912v41q0 16 -0.5 30t-0.5 18q0 13 -5 29t-17 29.5t-31.5 22.5t-49.5 9h-133v-97h-438v97zM955 310v-52q0 -23 0.5 -52t0.5 -58t-10.5 -47.5t-26 -30t-33 -16t-31.5 -4.5q-14 -1 -29.5 -0.5
t-29.5 0.5h-32l-45 128h-439l-44 -128h-29h-34q-20 0 -45 1q-25 0 -41 9.5t-25.5 23t-13.5 29.5t-4 30v167h911zM163 247q-12 0 -21 -8.5t-9 -21.5t9 -21.5t21 -8.5q13 0 22 8.5t9 21.5t-9 21.5t-22 8.5zM316 123q-8 -26 -14 -48q-5 -19 -10.5 -37t-7.5 -25t-3 -15t1 -14.5
t9.5 -10.5t21.5 -4h37h67h81h80h64h36q23 0 34 12t2 38q-5 13 -9.5 30.5t-9.5 34.5q-5 19 -11 39h-368zM336 498v228q0 11 2.5 23t10 21.5t20.5 15.5t34 6h188q31 0 51.5 -14.5t20.5 -52.5v-227h-327z" />
    <glyph glyph-name="uniE600" unicode="&#xe600;" 
d="M310.5 697q19.5 0 37.5 -7.5t30.5 -20.5t20.5 -30t8 -37q0 -40 -28.5 -67.5t-68.5 -27.5q-19 0 -36.5 7t-30.5 20.5t-20.5 30.5t-7.5 37t7.5 37t20.5 30t30.5 20.5t37 7.5zM876 847q52 0 74 -29.5t22 -76.5v-735q0 -14 -7 -29t-18.5 -26t-27 -18.5t-33.5 -7.5h-755
q-32 0 -56 25.5t-24 61.5v750q0 37 20.5 61t54.5 24h750zM880 727q0 11 -9 20t-21 9h-678q-12 0 -20.5 -9t-8.5 -20v-1v-367q11 -12 27.5 -28t39.5 -29.5t52.5 -23.5t65.5 -10q55 0 97 18t79.5 44t73 57.5t78 58.5t97 46t127.5 22v213z" />
    <glyph glyph-name="uniE601" unicode="&#xe601;" 
d="M287 300q0 -19 -6 -36t-16.5 -31t-24.5 -25t-31.5 -16.5t-36.5 -5.5q-47 0 -80.5 33.5t-33.5 80.5q0 31 15.5 57.5t41.5 41.5t57 15q61 0 95 -50q19 -29 20 -64zM512 414q-47 0 -80.5 -33.5t-33.5 -80.5t33.5 -80.5t80.5 -33.5q31 0 57.5 15t41.5 41.5t15 57.5
q0 47 -33.5 80.5t-80.5 33.5zM851.5 414q-47.5 0 -80.5 -33.5t-33 -80.5t33 -80.5t80.5 -33.5t81 33.5t33.5 80.5t-33.5 80.5t-81 33.5z" />
    <glyph glyph-name="uniE602" unicode="&#xe602;" 
d="M503.5 784q-66.5 0 -130 -17.5t-117.5 -49t-99 -77t-76.5 -99t-49.5 -117t-18 -130.5q0 -157 91 -284q6 -8 15 -9.5t16.5 4t9 14.5t-3.5 17q-83 115 -83 258q0 91 35.5 173.5t95 142t142 94.5t173 35t173 -35t142 -94.5t94.5 -142t35 -173t-35 -173t-94.5 -142t-142 -95
t-173.5 -35.5q-140 0 -254 80q-8 5 -17 3.5t-14 -9t-3.5 -17t9.5 -14.5q125 -88 279 -88q100 0 190.5 39t156 104.5t104.5 156.5t39 190q0 67 -17.5 130.5t-49 117t-77 99t-99 77t-117 49t-130 17.5zM467 612v-312v-45h45h267v45h-267v312h-45z" />
    <glyph glyph-name="uniE603" unicode="&#xe603;" 
d="M819 445h-246v246h-122v-246h-246v-122h246v-246h122v246h246v122z" />
    <glyph glyph-name="uniE604" unicode="&#xe604;" 
d="M693 572l-87 87l-275 -275v0l275 -275l87 87l-188 188z" />
    <glyph glyph-name="uniE605" unicode="&#xe605;" 
d="M693 384l-275 275l-87 -87l188 -188l-188 -188l87 -87l275 275v0z" />
    <glyph glyph-name="uniE606" unicode="&#xe606;" 
d="M632 533v1v-1zM819 809l-13 -9l-5 4l-32 27l-32 -27v0l-32 27l-32 -27v0l-32 27l-32 -27h-1l-32 27l-32 -27l-32 27l-32 -27v0l-32 27l-32 -27h-1l-32 27l-32 -27v0l-32 27l-32 -27v0l-32 27l-33 -27l-4 -4l-13 9l-77 48v-91v-14v-726v-91l77 49q5 3 13 8l4 -4l33 -27
l32 27v0l32 -27l32 27v0l32 -27l32 27h1l32 -27l32 27v0l32 -27l32 27l32 -27l32 27h1l32 -27l32 27v0l32 -27l32 27v0l32 -27l33 27l4 4q4 -2 7 -4t5 -3l1 -1l77 -49v91v740v91zM871 -10q-39 25 -47 30l-35 -29q-1 1 -3 2.5t-7 5.5t-9.5 7.5t-9 7.5t-6.5 6q-8 -7 -34 -29
l-35 29l-35 -29q-3 2 -7.5 6t-14 12t-12.5 11l-35 -29l-34 29l-35 -29l-1 1q-1 0 -2.5 1.5t-3.5 3t-5 4t-5 4.5t-5 4.5t-5 4t-4 3.5t-4 3l-34 -29q-3 2 -8 6t-14 12t-13 11l-34 -29q-2 1 -3.5 2.5t-6.5 5.5t-9.5 7.5t-9 7.5t-6.5 6l-35 -29q-3 2 -7.5 6t-14 12t-12.5 11
l-35 -29q-28 23 -35 29q-47 -29 -47 -30v792v16q4 -3 10.5 -7t19.5 -12.5t17 -10.5q3 3 12 10.5t16 13.5l7 6q27 -23 35 -29l34 29q27 -23 35 -29q3 3 12 10t16 13l7 6q26 -23 34 -29l35 29q27 -23 34 -29l35 29q3 -3 7.5 -7t14 -11.5t13.5 -10.5q3 3 11.5 10t15.5 13l7 6
q27 -23 35 -29l34 29q27 -23 35 -29l35 29q26 -23 34 -29l35 29l35 -30l47 30v-808zM305 543q-3 -13 0 -16.5t14 7.5q27 34 54 52q18 13 12 17.5t-22 -3.5q-6 -3 -10.5 -4t-9.5 -0.5t-10.5 2.5t-11.5 6.5t-14 11.5q-4 4 -18 17t-21 19t-8 5q-3 -2 7 -17l2 -2q6 -10 13 -19.5
t12 -15t10 -11.5t6.5 -9.5t3 -9.5t-1.5 -10q-6 -18 -7 -20zM316 669q-9 -3 4 -21q15 -25 39 -27q20 -2 27.5 8.5t1.5 25.5q-7 12 -13 2l-3 -5q-3 -4 -8 -6.5t-12.5 -1t-13.5 7.5q-19 19 -22 17zM433 616q1 0 2 0.5t5 1.5l6 4l10 2.5t12.5 3t15 3t16.5 2.5q4 1 10 1l9 2h6
q3 1 4 2t1 3q-2 8 -47 5q-9 0 -21 -1q-7 -1 -9.5 -1t-5 1t-3.5 4l-1 9q-1 19 -8 19t-13 -21q0 -2 -0.5 -4t-1.5 -5q-7 -17 -5.5 -27t18.5 -4zM565 628q5 -2 13 -4.5t30 -12.5t41.5 -22.5t40.5 -34t32 -46.5l2 -2l2 -5q2 -4 3.5 -9t4.5 -12l4 -14q3 -7 5 -16.5t4 -19.5
q4 -24 12 -24q12 1 2 45v4q-5 22 -15 48t-13.5 41.5t-0.5 26.5q4 10 10.5 21.5t12.5 19t11 16.5t5.5 13.5t-3.5 10.5q-3 2 -5.5 3t-6 0t-6 -2.5t-6.5 -5t-6.5 -6t-8.5 -7.5q-3 -4 -5 -6q-28 -28 -43 -13q-3 4 -5 18t-2 16q-4 8 -10 8.5t-21 -10.5q-11 -10 -21 -13t-14.5 -3
t-16.5 4t-17 5q-20 4 -24 -1v-3q0 -2 2.5 -3.5t5.5 -2.5t7 -2zM758 528q16 -29 23 19l2 18q2 17 -0.5 22.5t-7.5 1t-13 -18.5q-7 -11 -8 -22t2 -16zM734 193q-9 13 -10 25.5t2.5 21t11.5 22.5t11 22q9 23 1 23q-2 0 -6 -5t-6 -10l-3 -6q-10 -20 -24.5 -39t-27.5 -31t-24 -21
t-18 -13l-6 -4q-19 -11 -8 -15q8 -2 18 4q22 13 36.5 16.5t22 1t17.5 -10.5q32 -24 30 -10q-2 8 -17 29zM745 247q-7 -4 -8.5 -12.5t1.5 -15.5l2 -6q8 -14 14 -16t8.5 1.5t9.5 -6.5q18 -32 18 0q0 22 -14.5 43t-30.5 12zM217.5 404q5.5 0 6.5 18q2 22 4 38t5 31q1 6 4 16.5
t5 18t1 20t-7 26.5q-9 23 -16 23q-8 0 -8 -16v-143q0 -32 5.5 -32zM442 163q-2 1 -5 2t-12.5 4.5t-18.5 8.5t-22 13.5t-24.5 18t-24.5 23.5t-22.5 29.5t-18 36.5t-12.5 43q-2 7 -4 18t-2.5 45.5t7.5 68.5l3 26q-4 2 -9.5 -6t-9.5 -25q-6 -21 -8.5 -37t-4 -39.5t3.5 -49.5
t15 -54q2 -2 3.5 -5.5t3.5 -13.5t-4 -16q-2 -3 -6 -8.5t-6 -8.5l-5 -7q-3 -5 -4 -7.5t-2 -6t0 -6t3 -4.5q6 -6 19 10q18 21 25 15q6 -6 -2 -19q-15 -23 -40 -37q-9 -5 -13.5 0.5t-1.5 17.5q2 13 -1 26t-8.5 28.5t-6.5 29.5q-4 50 -9 50q-4 0 -5 -10.5t-1 -47.5v-125v-6
q0 -4 3.5 -13.5t9 -17t17.5 -13.5t28 -6l216 1l17 5q-1 2 -2.5 3t-5.5 2.5t-10 2.5t-15.5 2t-22.5 1q-36 2 -52.5 3.5t-32 5t-22.5 8.5t-15 16q-4 4 -7.5 5t-7.5 0t-7.5 -3t-8 -4.5t-8.5 -3.5q-6 -2 -7 7q-3 20 12 38q15 17 25 19q4 1 6 -2.5t0 -9.5q-7 -21 -4 -23
q6 -2 8.5 -0.5t7.5 7.5l1 1q13 15 29 5l23 -12q13 -6 40 -15t51 -12q30 -3 57 -1t44.5 7t16.5 10q-2 7 -19.5 4.5t-50 -5t-84.5 12.5zM809 249q1 0 2 3t1 6v3v196q-4 42 -8 42q-4 -1 -7.5 -33.5t-3.5 -59.5q0 -44 6 -112q1 -1 1 -4q4 -41 9 -41zM376 517q-6 -6 -15 -17
t-23 -46.5t-13 -70.5q3 -58 32.5 -100t74.5 -59q3 -1 7 -2.5t14 -3.5t12 2q5 5 -15 17q-1 1 -3 2l-9 6q-28 16 -44.5 34t-24.5 37t-11 43q-4 46 5 77.5t36 55.5q13 11 22 11.5t13 -5.5t10.5 -9t14.5 3q6 3 9 16.5t10.5 26t23.5 16.5q13 2 19 7t3 10q-4 6 -22.5 6t-43.5 -6
q-10 -3 -20.5 -7.5t-18.5 -9t-15.5 -9.5t-12.5 -9t-8.5 -7.5t-5.5 -6.5zM650 480q25 -30 29 -77q3 -28 0 -45q-2 -9 -2 -17t5 -9q4 -1 7 3t5 9l1 4q17 65 -13 121t-68 76q-24 12 -32 1v-2q0 -2 1 -4t2.5 -3.5t3 -3.5t3.5 -3.5t4 -2.5t5.5 -3.5t6.5 -4.5t6.5 -4.5t7.5 -5.5
t8 -7t9 -9.5t11 -12.5zM215 616q5 -1 7 12v6l1 7q0 2 1 5t4 10.5t7 11.5q3 4 9 6.5t14.5 3.5t15 1.5t18.5 0.5h18q7 0 12 0.5t10.5 1t8.5 2t3 2.5q-1 3 -31 3h-84q-17 -1 -17 -18q0 -2 -0.5 -9.5t-0.5 -14.5v-14q0 -7 1 -11.5t3 -5.5zM807 229q-4 -2 -4 -31q0 -39 -20 -44
q-4 -1 -6.5 -3t-2.5 -5t0.5 -6.5t2 -8t1.5 -8.5q2 -10 -10 -16t-26 -6q-46 0 -46 -8q0 -5 23 -5h61q31 0 33 25v89v12q0 4 -0.5 8.5t-2 6t-3.5 0.5z" />
    <glyph glyph-name="uniE607" unicode="&#xe607;" 
d="M632 533v1v-1zM637 741q-1 2 -2 4.5t-2 3.5v1q1 -4 4 -9zM719 480q-3 -33 2 -79.5t15 -61.5q7 -10 12 -30t6 -35l2 -15q2 19 0.5 34.5t-4.5 25.5l-2 10q-6 26 -8.5 56t-2.5 47l1 18q1 12 0.5 23t-2 21t-3.5 19t-4.5 17t-5.5 15t-5.5 12t-4.5 8.5t-3 5.5l-2 2q-4 4 -8 4
t-7 -2l-2 -2q-4 -6 -3.5 -11.5t3.5 -9.5l2 -4l2 -2q1 -1 3 -5l6 -8l5 -10t5 -12.5t3 -14.5t0 -16zM677 317q3 -1 6.5 -6t10 -32.5t8.5 -67.5q5 -89 35 -126q-1 3 -2 7q-8 20 -11 30.5t-6.5 36t0.5 50.5q2 28 -5 62.5t-16 54.5l-8 20q-9 13 -23 2q-2 -4 -2 -8t2 -8t4.5 -7.5
t4.5 -5.5zM806 554l-6 77q4 4 8 9q12 24 -8 60l-1 28q-1 34 -12.5 61t-19 35.5t-14.5 13.5q-13 10 -28.5 15.5t-31.5 5.5q-21 0 -37 -8h-1q-20 -11 -31.5 -29t-14.5 -34t-1 -31q-6 -21 -12 -76t-8.5 -90.5t-4.5 -66.5v0l-2 -44q-3 -68 -4 -144l-98 5l-7 -57l16 -3l-2 -23
l-83 23q-26 8 -54 8q-35 0 -61 -9v0q-48 -19 -66 -52.5t-12 -66.5q0 -4 0.5 -7.5t1.5 -6.5l2 -6v-6q1 -3 1.5 -5t1.5 -4.5t1.5 -4t0.5 -3.5l-3 -24q-13 -49 12 -86t58 -55q34 -18 69 -18q16 0 32 3.5t32.5 12t27 14t27.5 17.5q37 24 54 29q10 4 22.5 6.5t26.5 3.5t30 1
q38 0 74 -6h3h2q26 1 47.5 8t34.5 17.5t22 23.5t13 24.5t5 22.5q9 76 9.5 140.5t-4.5 158t-7 143.5zM692 683q19 -9 38.5 -22.5t32 -25.5t13.5 -19q4 -19 8 -240t-1 -268l-6 -22q-24 -48 -92 -51q-2 0 -5.5 0.5t-15 2t-23.5 2.5t-28.5 1t-31.5 -1t-31.5 -3.5t-30.5 -7.5
q-16 -6 -39 -20t-42 -26t-41.5 -21.5t-48 -8t-51.5 15.5q-2 1 -4.5 2.5t-10.5 7t-14 12t-14.5 16.5t-11.5 21t-5.5 25.5t3.5 29.5q0 2 1 4.5t2 11t0 17.5q62 -73 209 -14q27 11 46 22q-132 -48 -201 -29v0l-3 1h-1q-9 3 -17 8q-38 20 -43 55q-2 3 -0.5 15t4.5 24.5
t18.5 27.5t39.5 24q2 1 5.5 2t14.5 3.5t22 3t27 -1t31 -6.5l105 -29l9 9l5 65l-15 3l1 10l52 -3v-12l-14 1l-1 -66l9 -7h3q2 0 8 0.5t11.5 2t11.5 5.5t10.5 9.5t7.5 15t2 22.5q2 92 6 196q2 -6 3.5 -12t2.5 -9v-3q4 -9 6.5 -20t2.5 -18v-7q1 -13 2.5 -24.5t3.5 -19t3 -13.5
t2 -9l1 -3q-4 23 -3.5 31t2.5 28.5t1 41.5q0 10 -2 20.5t-4 18.5t-4.5 15t-5 12t-4.5 8.5t-4 5.5l-1 2q1 22 3.5 56t9 97.5t12.5 78.5q1 3 -0.5 14.5t7 30.5t27.5 29l21 5q28 1 50 -16q1 0 2 -1l2 -2q3 -3 5 -5.5t5 -7t6 -9.5t5.5 -12t4.5 -15t3.5 -18t2.5 -21l1 -34l11 -24
q6 -21 -13 -23h-2q-3 5 -9 12.5t-26 22.5t-42 22q-39 11 -57 43q21 -42 55 -58z" />
    <glyph glyph-name="uniE608" unicode="&#xe608;" 
d="M632 533v1v-1zM673 33v136q147 49 127 283h-156v321h312v-409q-49 -282 -273 -321zM128 33v136q146 49 127 283h-166v321h322v-409q-59 -282 -273 -321zM128 33z" />
    <glyph glyph-name="uniE609" unicode="&#xe609;" 
d="M632 533v1v-1zM373 773v-136q-145 -48 -126 -280h155v-318h-309v405q48 280 270 319zM913 773v-136q-145 -48 -125 -280h164v-318h-319v405q58 280 271 319zM913 773z" />
    <glyph glyph-name="uniE60A" unicode="&#xe60a;" 
d="M632 533v1v-1zM882 672q-1 7 -3 13.5t-4 12.5t-5 12t-7 11.5t-8 10.5t-9 10q-36 35 -91 35h-242h-57h-60h-56h-59h-12q-5 0 -11 -0.5t-11 -1.5q-47 -7 -78 -45q-27 -33 -27 -82v-238v-237q0 -9 0.5 -17t1.5 -16q6 -39 35 -68q37 -36 91 -36h248h231h10q5 0 10 0.5t10 1.5
q40 5 69 35q36 36 36 91v265v215q0 14 -2 28zM814 99q-22 -21 -49 -21h-252h-244q-39 0 -63 27q-21 22 -22 51v49v444q0 7 0.5 13t2 11.5t4 11t5.5 10.5t7 10q7 9 16 15.5t20 10.5t23 4h201h91h110h92q20 0 36 -6.5t28 -20.5q10 -11 15.5 -24t5.5 -28v-25v-25v-26v-26v-25
v-25v-341q1 -39 -27 -64zM814 99zM654 569q4 4 5 6q4 5 4.5 10.5t-2.5 10.5q-5 10 -15.5 11.5t-18.5 -6.5l-111 -111q-3 -3 -7 0q-6 7 -45 45q-3 4 -7 8t-7.5 7t-7 7t-7 7.5t-7.5 7t-7.5 7.5t-7 7.5t-7.5 7t-7 7.5q-6 5 -12.5 6.5t-12.5 -1.5q-10 -5 -11.5 -15.5t6.5 -19.5
q6 -5 11.5 -10.5t13 -13.5t11.5 -11q9 -10 80 -81h-6h-94q-8 0 -14 -4t-8 -10t0 -12.5t7.5 -11t15.5 -4.5h101q5 0 5 -5v-22v-21q0 -4 -1.5 -5t-4.5 -1h-105q-6 0 -11 -5q-12 -9 -7 -23t20 -14h103q4 0 5 -1t1 -4v-83q0 -14 9.5 -20t19.5 -2q7 3 10 8.5t3 13.5v83q0 5 6 5
h102q11 0 17.5 8.5t3.5 19.5q-5 14 -23 14h-101q-5 0 -5 5v44q0 5 5 5h53h45h4q2 0 3.5 0.5t3.5 0.5q8 2 12.5 9.5t2.5 15.5t-8 12t-15 4h-46h-47q-5 0 -6 1zM654 569z" />
    <glyph glyph-name="uniE60B" unicode="&#xe60b;" 
d="M632 533v1v-1zM487 231v6v75v84v72v84v73v80q0 8 2 14q7 18 28 14q19 -4 20 -23v-2v-536q0 -9 -4.5 -16t-12 -9t-16.5 1q-6 1 -10 6q-9 9 -163 162l-130 130q-6 6 -7.5 12.5t0.5 12.5t6.5 10.5t11 6.5t12 0.5t10.5 -5.5l4 -4l110 -110l134 -134q1 0 3 -2zM487 231z
M867 167v-5v-103q0 -24 -24 -24h-662q-11 0 -17.5 6t-6.5 18v103v4h37v-4v-67q0 -4 0.5 -7t2.5 -6t4.5 -5t6 -3t7.5 -1h4h39h547h3q2 0 4 0.5t4 0.5q4 1 7.5 4t5 7.5t1.5 8.5v67v6h37zM867 167zM602 288q0 10 8 18t17.5 18t17 17t18.5 18t17 18q94 93 111 110q5 5 11.5 7
t12.5 0.5t11 -6.5q6 -7 6.5 -16t-6.5 -17l-2 -2q-162 -162 -181 -180q-11 -12 -26 -7t-15 22zM602 288z" />
    <glyph glyph-name="uniE60C" unicode="&#xe60c;" 
d="M632 533v1v-1zM539 648v-6q0 -337 -1 -468v-5q0 -2 -0.5 -4t-1.5 -4q-1 -4 -4 -7t-6.5 -5t-8 -2.5t-8.5 0.5q-19 3 -20 22v2v537q0 13 10 20.5t23 3.5q5 -2 10 -6q9 -9 162 -163q86 -85 131 -130q11 -12 6.5 -25t-17.5 -17q-12 -3 -22 5l-4 4q-36 36 -77 76.5t-91 90.5
l-77 77l-2 2zM539 648zM867 167v-5v-17v-17v-18v-17v-17v-17q0 -24 -24 -24h-662q-6 0 -10.5 1.5t-7.5 4.5t-4.5 7.5t-1.5 10.5v103v4h37v-4v-67q0 -4 0.5 -7t2.5 -6t4.5 -5t6 -3t7.5 -1h4h82h87h80h87h81h86h83q3 0 6 0.5t5 0.5q14 4 14 20v67v6h37zM867 167zM424 591
q0 -10 -8 -18q-7 -6 -14 -13.5t-14.5 -14.5t-14 -13.5t-14.5 -15t-14 -13.5q-8 -9 -21.5 -22t-23 -23t-21 -21.5t-23 -22.5t-21.5 -22q-5 -5 -11.5 -6.5t-12.5 0t-11 5.5q-4 5 -6 10.5t-0.5 11.5t5.5 11q1 0 2 1v1l181 181q12 11 26 6q7 -2 11.5 -8t4.5 -14zM424 591z" />
    <glyph glyph-name="uniE60D" unicode="&#xe60d;" 
d="M632 533v1v-1zM836 422q-16 29 -41 45t-58 18q-5 0 -81 1h-3v1q2 9 3.5 19t2.5 19.5t2 19.5q2 30 2 56q1 4 1 12v13v11q0 7 -1 12q-6 44 -46 64q-21 10 -42.5 9t-41.5 -14q-29 -19 -36 -55q-2 -8 -2 -30q0 -43 -17 -76q-49 -93 -153 -95h-81q-13 0 -23 -4
q-15 -5 -25 -14.5t-16 -22.5t-6 -28v-133v-134q0 -15 5 -27q6 -13 14.5 -22t19.5 -14t25 -6h88q2 0 4 0.5t4 1.5q9 5 9 17v344q0 8 1 9l8 1q24 3 45.5 11t41.5 22q57 38 80 104q5 17 7.5 34.5t2.5 36.5q0 12 1 17q3 22 21.5 34.5t39.5 7.5q18 -5 28.5 -18.5t10.5 -31.5v-23
v-22l-2 -24q0 -11 -1 -22q-4 -47 -13 -71q-1 -5 0 -9q1 -7 6 -10.5t12 -3.5h97q10 0 17.5 -1.5t15.5 -4.5q31 -12 45.5 -41.5t4.5 -61.5q-6 -20 -17 -53q-20 -56 -64 -167q-4 -10 -5 -14q-4 -11 -16 -19q-13 -9 -35 -9h-77h-90h-77h-1h-4q-5 -1 -8.5 -3.5t-5 -6t-1.5 -8
t2 -8.5q5 -8 17 -8h247q32 0 55 17q18 14 24 31q4 9 13 32.5t14 36.5q38 98 57 153q8 27 9 43q1 17 -2 32.5t-11 29.5zM306 81h-62q-16 0 -26 9.5t-10 25.5v267q0 10 4.5 18t12.5 12.5t18 4.5h31h33q3 0 3 -3q-1 -43 -1 -166v-39v-46q0 -12 0.5 -36t0.5 -44q0 -3 -4 -3z
M306 81z" />
    <glyph glyph-name="uniE60E" unicode="&#xe60e;" 
d="M632 533v1v-1zM512 699h266q17 0 31.5 -6.5t25.5 -18.5q8 -9 12 -20t5 -23v-3v-3v-354q0 -10 -2 -18.5t-6 -16.5t-10 -15q-3 -3 -6 -5l-6 -6q-3 -2 -6 -3.5t-6 -2.5l-8 -4q-3 -1 -6.5 -1.5t-7.5 -1t-8 -0.5h-70q-11 0 -16.5 9t0.5 18t17 9h69q13 0 23 7.5t13 20.5
q1 4 1 10v111v132v111q0 15 -8.5 25t-22.5 12q-2 1 -8 1h-533q-13 0 -23.5 -8t-13.5 -20q-1 -4 -1 -9v-114v-128v-114q0 -8 3 -15t8 -12t12 -7.5t15 -2.5h300q10 0 18 -8l157 -157q11 -11 5 -23q-4 -7 -12.5 -8.5t-14.5 3.5l-4 3l-151 151l-6 3h-291q-19 0 -34.5 7.5
t-26.5 22.5q-13 19 -13 43v178v178q0 24 12.5 42t35.5 27q6 2 12.5 3t13.5 1h266zM512 699zM512 412q-10 0 -18 5t-13 13t-5 18q0 14 10.5 25t25.5 11t25.5 -10.5t10.5 -25.5q0 -10 -5 -18t-13 -13t-18 -5zM512 412zM387 448q0 -8 -3 -14.5t-8 -11t-11.5 -7.5t-13.5 -3
q-15 0 -25.5 10.5t-10.5 25.5q0 7 3 13.5t7.5 11.5t11.5 8t14 3q15 0 25.5 -10.5t10.5 -25.5zM387 448zM709 448q0 -7 -3 -14t-7.5 -11.5t-11 -7.5t-14.5 -3q-15 0 -25.5 10.5t-10 25.5t11 25.5t25 10.5t25 -10.5t10.5 -25.5zM709 448z" />
    <glyph glyph-name="uniE60F" unicode="&#xe60f;" 
d="M632 533v1v-1zM945 379q-25 71 -69.5 127.5t-108.5 97.5q-96 63 -215 73q-76 7 -149 -11q-120 -28 -208 -109q-82 -76 -118 -182q-2 -8 0 -15q41 -122 141 -202q127 -102 298 -102q35 0 67 5q80 12 147 48q157 83 215 247q2 6 2 11.5t-2 11.5zM906 365
q-17 -47 -43.5 -86.5t-62.5 -73.5q-81 -74 -192 -99q-24 -5 -48.5 -8t-53.5 -3q-131 1 -237 75q-108 73 -152 195v5q33 91 103 157q76 70 177 97q78 21 158 13q110 -11 199 -72q108 -73 152 -195v-2v-3zM906 365zM590 545q-35 16 -77 17q-11 0 -17 -8t-3 -18q4 -13 19 -14
q42 -1 73 -19q26 -14 44 -34.5t27 -44t10 -50.5q0 -41 -13 -70q-18 -39 -53 -64q-16 -11 -34.5 -18t-38.5 -9q-18 -2 -36.5 0.5t-35.5 9.5q-46 19 -73 60q-8 12 -13.5 26t-8.5 28t-3 29q-1 10 -6.5 15.5t-13.5 5.5q-5 0 -8.5 -1.5t-6 -4.5t-4 -7t-1.5 -9q0 -10 1.5 -20.5
t3.5 -20.5q14 -64 65.5 -106.5t116.5 -44.5q52 -2 98 22q57 29 85 88.5t15 121.5q-10 49 -38.5 84t-73.5 56zM590 545z" />
    <glyph glyph-name="uniE610" unicode="&#xe610;" 
d="M632 533v1v-1zM713 396h-400q-9 0 -15 6t-6 15t6 15t15 6h400q9 0 15 -6t6 -15t-6 -15t-15 -6zM713 396zM513 196q-9 0 -15 6t-6 15v400q0 9 6 15t15 6t15 -6t6 -15v-400q0 -9 -6 -15t-15 -6zM513 196zM513 38q-51 0 -100.5 13.5t-91 38t-76.5 59.5t-59.5 76.5t-38 90.5
t-13.5 101q0 103 51 190t138 138t190 51q39 0 76.5 -8t71 -22t64 -35t56 -46.5t46.5 -56t35 -64t22 -71t8 -76.5q0 -150 -103 -260q-101 -107 -247 -118q-15 -1 -29 -1zM513 754q-139 0 -238 -99t-99 -238q0 -91 45.5 -169t123 -123t168.5 -45q46 0 89.5 12t80.5 34t68 53
t53 68t34 80.5t12 89.5q0 91 -45 168.5t-123 123t-169 45.5zM513 754z" />
    <glyph glyph-name="uniE611" unicode="&#xe611;" 
d="M632 533v1v-1zM513 435q-74 0 -127 52.5t-53 126.5q0 49 24.5 90.5t65.5 65.5t90 24q74 0 127 -52.5t53 -127.5q0 -36 -14.5 -69.5t-38.5 -57.5t-57.5 -38t-69.5 -14zM513 752q-37 0 -69 -18.5t-50.5 -50t-18.5 -69.5q0 -57 40.5 -97t97.5 -40q28 0 53.5 11t44 29
t29.5 43.5t11 53.5q0 38 -18.5 69.5t-50.5 50t-69 18.5zM513 752zM513 39q-79 0 -145 14t-111 46t-45 77q0 124 88.5 212.5t212.5 88.5t212.5 -88.5t88.5 -212.5q0 -45 -45 -77t-111 -46t-145 -14zM513 435q-26 0 -52 -5.5t-49 -15t-44 -24t-38.5 -32t-31.5 -38t-23.5 -43.5
t-15 -49t-5.5 -52t34 -48t94 -34.5t131 -12.5q109 0 184 27.5t75 67.5q0 112 -82 189q-75 69 -177 70zM513 435z" />
    <glyph glyph-name="uniE612" unicode="&#xe612;" 
d="M632 533v1v-1zM671 39h-68q-3 0 -6.5 1t-6 3t-4.5 4.5t-3 5.5t-1 6v214q0 21 -15.5 36.5t-36.5 15.5h-36q-21 0 -36.5 -15.5t-15.5 -36.5v-214q0 -8 -6.5 -14t-14.5 -6h-68q-39 0 -66.5 27t-27.5 66v271h-103q-3 0 -6 1t-5.5 3t-4.5 4.5t-3 4.5q-6 14 4 23l356 348
q4 4 9.5 5t11 0t9.5 -5l356 -348q10 -9 4 -23q-2 -5 -7.5 -9t-11.5 -4h-103v-271q0 -52 -45 -79q-23 -14 -49 -14zM624 80h47q21 0 36.5 15.5t15.5 36.5v292q0 6 3 11t7.5 7.5t10.5 2.5h73l-305 297l-305 -297h73q4 0 8 -1.5t7 -4.5t4.5 -6.5t1.5 -8.5v-292q0 -10 4 -19.5
t11 -16.5t17 -11.5t20 -4.5h47v193q0 19 7.5 36.5t20 30t30 20t36.5 7.5h36q39 0 66.5 -27.5t27.5 -66.5v-193zM624 80z" />
    <glyph glyph-name="uniE613" unicode="&#xe613;" 
d="M632 533v1v-1zM264 38q-4 0 -7 1q-6 3 -10 8t-4 12v105q-47 8 -78 42.5t-31 81.5v379q0 52 39 89t94 37h490q55 0 94 -37t39 -89v-379q0 -52 -39 -89t-94 -37h-379l-98 -117q-2 -2 -4.5 -3.5t-5.5 -2.5t-6 -1zM267 751q-38 0 -64.5 -24.5t-26.5 -59.5v-379
q0 -35 25.5 -59t63.5 -25q2 0 5 -1t5 -3l4 -2q2 -2 3.5 -4.5t2 -5t0.5 -5.5v-67l67 80q7 8 16 8h389q38 0 64.5 24.5t26.5 59.5v379q0 35 -26.5 59.5t-64.5 24.5h-490zM267 751zM756 567h-488q-3 0 -6.5 1t-6 3t-4.5 4.5t-3 5.5t-1 7q0 9 6.5 15t14.5 6h488q3 0 6 -1l4 -2
q3 -1 5 -3t3 -5l2 -4q1 -3 1 -6q0 -6 -3 -10.5t-8 -7.5t-10 -3zM756 567zM756 454h-488q-3 0 -6.5 1t-6 3t-4.5 4.5t-3 5.5t-1 7q0 5 3 10t8 8t10 3h488q3 0 6.5 -1t6 -3t4.5 -4.5t3 -6t1 -6.5q0 -9 -6.5 -15t-14.5 -6zM756 454zM571 341h-303q-4 0 -8 1.5t-6.5 4.5
t-4.5 6.5t-2 8.5q0 8 6.5 14.5t14.5 6.5h303q8 0 14 -6.5t6 -15t-6 -14.5t-14 -6zM571 341z" />
    <glyph glyph-name="uniE614" unicode="&#xe614;" 
d="M632 533v1v-1zM721 37h-418q-52 0 -89 37t-37 89v502q0 34 17 63t46 46t63 17h21q5 0 10 -3t8 -8t3 -10.5t-3 -10.5t-8 -7.5t-10 -2.5h-21q-35 0 -59.5 -24.5t-24.5 -59.5v-502q0 -17 6.5 -32.5t18 -27t27 -18t32.5 -6.5h418q35 0 59.5 24.5t24.5 59.5v502
q0 35 -24.5 59.5t-59.5 24.5h-21q-8 0 -14.5 6t-6.5 15q0 5 3 10t8 8t10 3h21q52 0 89 -37t37 -89v-502q0 -34 -17 -63t-46 -46t-63 -17zM721 37zM611 749h-198q-6 0 -11 2.5t-7.5 7.5t-2.5 11q0 8 6 14.5t15 6.5h198q9 0 15 -6.5t6 -15t-6 -14.5t-15 -6zM611 749zM724 530
h-424q-6 0 -10.5 2.5t-7.5 7.5t-3 11q0 3 1 6t3 6t4.5 5t6 3t6.5 1h424q9 0 15 -6.5t6 -15t-6 -14.5t-15 -6zM724 530zM724 393h-424q-4 0 -8 1.5t-7 4.5t-4.5 7t-1.5 8t1.5 8t4.5 6.5t7 4.5t8 2h424q9 0 15 -6.5t6 -15t-6 -14.5t-15 -6zM724 393zM724 256h-424
q-6 0 -10.5 3t-7.5 7.5t-3 10.5q0 9 6 15t15 6h424q9 0 15 -6t6 -15t-6 -15t-15 -6zM724 256z" />
    <glyph glyph-name="uniE615" unicode="&#xe615;" 
d="M286 28l-45 45q-10 9 -10 22.5t10 22.5l181 181l-181 182q-5 4 -7.5 10t-2.5 12t2.5 12t7.5 11l45 45q9 10 22.5 10t22.5 -10l182 -181l181 181q9 10 22.5 10t22.5 -10l45 -45q7 -6 9 -14.5t0 -16.5t-9 -14l-181 -182l181 -181q10 -9 10 -22.5t-10 -22.5l-45 -45
q-9 -10 -22.5 -10t-22.5 10l-181 181l-182 -181q-9 -10 -22.5 -10t-22.5 10z" />
  </font>
</defs>
</svg>
