<?xml version="1.0" standalone="no"?>
<!DOCTYPE svg PUBLIC "-//W3C//DTD SVG 1.1//EN" "http://www.w3.org/Graphics/SVG/1.1/DTD/svg11.dtd" >
<svg>
<metadata>
Created by FontForge 20120731 at Thu Apr 11 15:14:07 2019
 By www-data
Copyright (c) 2019 by David Kerkhoff. All rights reserved.
</metadata>
<defs>
<font id="RoughTherapyDEMO-Regular" horiz-adv-x="490" >
  <font-face 
    font-family="Rough Therapy DEMO"
    font-weight="400"
    font-stretch="normal"
    units-per-em="1000"
    panose-1="0 0 0 0 0 0 0 0 0 0"
    ascent="800"
    descent="-200"
    x-height="469"
    cap-height="693"
    bbox="-100 -248 836 958"
    underline-thickness="0"
    underline-position="0"
    unicode-range="U+000D-20AC"
  />
<missing-glyph horiz-adv-x="770" 
d="M224 211l-12 56l-25 -7l-54 12l-23 37l-7 40l15 29l43 15l20 2l26 -17l2 6l10 70l22 40l49 37l50 12l97 2l106 -23l56 -36l20 -32l17 -44l19 14l32 1l27 -23l10 -32l-17 -49l-51 -20l-4 8l3 -43l-16 -118l-36 -62l-89 -50l-85 -14l-76 11l-52 29l-30 37zM307 224l-3 -36
l6 -30l21 -33l45 -19l86 -4l46 14l62 24l20 18l26 51l-12 38l-34 33l-32 4h-45zM379 445l-59 -17l-24 -50l11 -42l33 -35h39l44 18l14 20l2 31l-4 38l-12 17l-6 5zM494 454l-28 -9l-9 -26l-3 -35l20 -39l26 -15l49 2l29 13l14 25l1 32l-4 20l-19 17l-33 15h-43zM360 414
l2 -13l-14 -6l-8 -11v-14l11 -15h2l29 3l3 3l-3 17h-12l-8 -8h-2l-10 8l3 6l23 14l29 -7l3 -4l-5 -32l-4 -10l-16 -7l-26 -6l-17 4l-15 14l-5 28l5 24zM521 428l2 14l35 -12l5 -25l-5 -27l-15 -14l-17 -5l-26 6l-15 8l-5 9l-5 32l3 5l30 6l23 -14l3 -6l-11 -7h-2l-7 7h-13
l-3 -17l3 -3l30 -3h1l11 16v13l-8 11zM30 554l76 10l-21 -32l82 4l-32 -29l80 -3l-33 -12l27 -13l-102 10l30 34l-67 -8l11 28zM394 168l48 38l21 -11v-3l37 20l6 -1l8 -7l6 -7l-11 -20l-37 -14l-30 -5zM247 695l52 -33l-31 -6l52 -39l-34 1l47 -43l-26 12l9 -22l-57 56
l37 4l-46 29l23 10zM507 695l-6 -61l-20 24l-12 -63l-14 31l-18 -61l-1 29l-15 -18l25 75l20 -31l5 54l19 -17zM740 619l-29 -58l-17 34l-39 -58l-9 38l-44 -52l9 29l-27 -10l60 62l15 -41l26 52l20 -25z" />
    <glyph glyph-name=".notdef" horiz-adv-x="770" 
d="M224 211l-12 56l-25 -7l-54 12l-23 37l-7 40l15 29l43 15l20 2l26 -17l2 6l10 70l22 40l49 37l50 12l97 2l106 -23l56 -36l20 -32l17 -44l19 14l32 1l27 -23l10 -32l-17 -49l-51 -20l-4 8l3 -43l-16 -118l-36 -62l-89 -50l-85 -14l-76 11l-52 29l-30 37zM307 224l-3 -36
l6 -30l21 -33l45 -19l86 -4l46 14l62 24l20 18l26 51l-12 38l-34 33l-32 4h-45zM379 445l-59 -17l-24 -50l11 -42l33 -35h39l44 18l14 20l2 31l-4 38l-12 17l-6 5zM494 454l-28 -9l-9 -26l-3 -35l20 -39l26 -15l49 2l29 13l14 25l1 32l-4 20l-19 17l-33 15h-43zM360 414
l2 -13l-14 -6l-8 -11v-14l11 -15h2l29 3l3 3l-3 17h-12l-8 -8h-2l-10 8l3 6l23 14l29 -7l3 -4l-5 -32l-4 -10l-16 -7l-26 -6l-17 4l-15 14l-5 28l5 24zM521 428l2 14l35 -12l5 -25l-5 -27l-15 -14l-17 -5l-26 6l-15 8l-5 9l-5 32l3 5l30 6l23 -14l3 -6l-11 -7h-2l-7 7h-13
l-3 -17l3 -3l30 -3h1l11 16v13l-8 11zM30 554l76 10l-21 -32l82 4l-32 -29l80 -3l-33 -12l27 -13l-102 10l30 34l-67 -8l11 28zM394 168l48 38l21 -11v-3l37 20l6 -1l8 -7l6 -7l-11 -20l-37 -14l-30 -5zM247 695l52 -33l-31 -6l52 -39l-34 1l47 -43l-26 12l9 -22l-57 56
l37 4l-46 29l23 10zM507 695l-6 -61l-20 24l-12 -63l-14 31l-18 -61l-1 29l-15 -18l25 75l20 -31l5 54l19 -17zM740 619l-29 -58l-17 34l-39 -58l-9 38l-44 -52l9 29l-27 -10l60 62l15 -41l26 52l20 -25z" />
    <glyph glyph-name=".null" horiz-adv-x="0" 
 />
    <glyph glyph-name="nonmarkingreturn" horiz-adv-x="333" 
 />
    <glyph glyph-name="NULL" horiz-adv-x="0" 
 />
    <glyph glyph-name="NULL" horiz-adv-x="0" 
 />
    <glyph glyph-name="CR" unicode="&#xd;" horiz-adv-x="280" 
 />
    <glyph glyph-name="space" unicode=" " horiz-adv-x="280" 
 />
    <glyph glyph-name="exclam" unicode="!" horiz-adv-x="260" 
d="M92 -13l-24 7l-19 4l-4 7v69l7 23h55l11 -3l55 -4l9 -5l9 -9v-80l-9 -9h-90zM109 129l-55 2l-6 6l-6 63v306l-4 60l-8 59l3 55l6 8l19 5l46 -4l12 -2l61 -2l43 -8l10 -11v-45l-39 -408l-2 -73l-7 -7l-21 -7h-43z" />
    <glyph glyph-name="quotedbl" unicode="&#x22;" horiz-adv-x="384" 
d="M111 700l43 -13l8 -6l12 -41v-69l-34 -176l-21 -15l-30 -4l-17 13l-11 53l-22 146h-1l-8 42v19l6 21l8 13l19 11zM291 703l43 -13l8 -6l12 -41v-69l-34 -176l-21 -15l-30 -4l-17 13l-11 53l-22 146h-1l-8 42v19l6 21l8 13l19 11z" />
    <glyph glyph-name="dollar" unicode="$" horiz-adv-x="539" 
d="M300 770l-1 -17v-54h8l79 -27l57 -33l16 -18l34 -49l9 -44l7 -85l-8 -13l-7 -4h-115l-30 7l-8 7l-6 31l-9 27l-17 14l-15 6h-16l-34 -7l-16 -26l-5 -38l5 -9l8 -20l50 -18h50l63 -18l22 -14l40 -31l11 -17l12 -30l18 -58l3 -90l-9 -32l-34 -60l-25 -24l-45 -17l-26 -7
l-44 -5l1 -88l-4 -10l-14 -12l-49 6l-5 6l-1 96h-11l-75 24l-19 5l-41 19l-34 35l-20 33l-19 56l-1 53l9 8l36 9h109l22 -9l3 -7l3 -52l8 -19l16 -14h18l26 5l22 19l6 19l-3 34l-27 21l-38 16l-19 12l-115 30l-25 14l-32 45l-19 88v35l5 39l14 42l29 48l45 46l19 15l66 28
l19 3v98l7 9h48l16 -7l1 -5z" />
    <glyph glyph-name="quotesingle" unicode="'" horiz-adv-x="204" 
d="M111 700l43 -13l8 -6l12 -41v-69l-34 -176l-21 -15l-30 -4l-17 13l-11 53l-22 146h-1l-8 42v19l6 21l8 13l19 11z" />
    <glyph glyph-name="parenleft" unicode="(" horiz-adv-x="277" 
d="M125 13l-36 19l-23 23l-12 24l-10 31l-10 52l-4 304l12 96l17 51l18 28l26 26l20 11l62 20h31l19 -4l8 4v-66l-29 -3l-10 -10l-18 -25l18 -486l9 -29l17 -6l17 -2v-53l-44 -9z" />
    <glyph glyph-name="parenright" unicode=")" horiz-adv-x="294" 
d="M35 0l4 17v58l18 4l22 13l9 20l8 215l-12 259l-7 23l-9 14l-35 14l-3 17v43l57 -9l31 -3l45 -14l37 -18l28 -28l9 -22l14 -17l3 -33l6 -31l4 -148l-13 -164l-34 -90l-30 -41l-20 -17l-19 -22l-14 -7l-15 -4l-28 -18l-42 -11h-14z" />
    <glyph glyph-name="comma" unicode="," horiz-adv-x="230" 
d="M122 128l22 -6l28 -6l10 -6l14 -38l4 -58l-4 -6l-40 -164l-24 -14l-34 -4l-20 12l-12 50l-25 136h-1l-6 18l-4 20v18l6 20l10 12l22 10z" />
    <glyph glyph-name="hyphen" unicode="-" horiz-adv-x="380" 
d="M299 195l-261 3l-8 43l4 43l7 7l297 2l6 -2l6 -35l-3 -56l-5 -5h-43z" />
    <glyph glyph-name="period" unicode="." horiz-adv-x="236" 
d="M122 128l22 -6l28 -6l10 -6l20 -26l4 -43l-26 -31h-58l-66 6l-16 8l-6 18l-4 20v18l6 20l10 12l22 10z" />
    <glyph glyph-name="slash" unicode="/" horiz-adv-x="359" 
d="M30 -5v19l8 24l176 654l28 5l73 -5l14 -6l-142 -575l-38 -111l-11 -3l-99 -6z" />
    <glyph glyph-name="zero" unicode="0" horiz-adv-x="521" 
d="M123 11l-35 24l-31 42l-12 32l-9 40l-6 301l14 80l15 45l22 40l32 36l21 21l71 25l51 2l64 -2l10 -8l44 -12l34 -17l23 -20l15 -10l10 -25l9 -17l7 -34l5 -11l9 -40l5 -78l-2 -158l-28 -156l-17 -41l-13 -20l-24 -22l-31 -14l-4 -3l-31 -12l-77 -4l-11 -3h-69zM231 195
l8 -8h12l23 5l23 8l8 223l-4 69l-17 28l-18 6l-22 -2l-13 -22l-7 -36l-4 -186l4 -68z" />
    <glyph glyph-name="one" unicode="1" horiz-adv-x="393" 
d="M340 -3l-152 8l-6 6l2 41l-9 333h-3l-29 -18l-35 -9h-51l-14 8l-13 111l79 63l34 48l15 36l16 64l11 5l90 5h60l9 -9l4 -12l9 -109l6 -567l-5 -7h-9z" />
    <glyph glyph-name="two" unicode="2" horiz-adv-x="519" 
d="M61 12l-7 6v85l7 71l15 46l30 40l45 33l22 11l24 10l74 56l25 35l10 31v49l-9 27l-23 17l-23 6l-18 -3l-23 -13l-6 -18v-58l4 -23v-14l-7 -4l-116 -3l-21 -4l-26 5l-4 5v4l-4 18v107l11 51l14 37l22 29l42 25l65 22l35 3h48l79 -11l21 -10l18 -13l25 -10l33 -21l18 -33
l28 -87v-73l-10 -69l-11 -41l-14 -29l-39 -39l-135 -69l-9 -14v-5l187 11l16 -4l7 -83v-81l-7 -1z" />
    <glyph glyph-name="three" unicode="3" horiz-adv-x="514" 
d="M250 15l-17 3l-36 4l-33 14l-23 7l-75 42l-26 26l4 42l19 45l14 45l8 8h19l24 -16l79 -42l44 -11l23 12l15 22l9 33v29l-12 33l-10 10l-26 6h-42l-12 -4l-19 -3l-16 -6h-20l-5 4l3 7l-5 38v60l6 17l17 16l67 36l32 22l-224 -2l-2 4v164l6 6h15l7 -2h42l23 2h41l28 -5
l63 -1l22 -5l48 -3l19 -4h56l15 2h41l11 -11v-102l-4 -57l-10 -6l-15 -15l-18 -13l-34 -34l-18 -14l-11 -12l43 -8l15 -9l15 -6l18 -15l17 -23l19 -59v-92l-8 -42l-16 -48l-22 -33l-29 -28l-40 -21l-53 -7h-66z" />
    <glyph glyph-name="six" unicode="6" horiz-adv-x="516" 
d="M158 3l-31 12l-19 23l-28 28l-24 40l-13 43l-13 81l3 186l18 114l15 70l28 50l30 20l32 16l35 5l33 2l23 5h98l29 -5l33 -19l30 -25l11 -20l10 -48l3 -49l3 -26l-4 -24l-9 -9l-14 -7l-143 7l-9 4l6 20v60l-5 11h-22l-20 -15l-14 -27l-10 -101v-37l28 5h109l48 -8l28 -21
l15 -15l23 -43l15 -45v-63l-4 -43l-14 -39l-35 -47l-47 -39l-52 -22l-65 -8h-73zM237 127l19 -4h27l7 3l15 23l11 34v36l-11 22l-31 16h-31l-9 -3l-22 -3l-3 -7l3 -74l12 -31z" />
    <glyph glyph-name="seven" unicode="7" horiz-adv-x="502" 
d="M87 -1v8l196 506l-3 3h-31l-16 -2l-104 -5l-30 -4h-60l-9 9v176l4 3h423l11 -11l2 -38l2 -14l-7 -90l-41 -171l-129 -351l-9 -8l-44 -3l-56 -7l-41 -2l-13 -3h-34z" />
    <glyph glyph-name="eight" unicode="8" horiz-adv-x="552" 
d="M182 15l-43 13l-37 20l-31 24l-20 25l-11 20l-10 41v49l11 43l24 50l84 77l-37 16l-24 23l-16 28l-8 53v72l19 40l37 43l40 25l89 13h72l36 -9l63 -25l42 -39l12 -19l10 -27v-93l-11 -35l-58 -60l33 -20l41 -30l16 -23l12 -34l5 -43l-2 -61l-29 -60l-28 -42l-56 -33
l-53 -19l-44 -10l-69 -2zM236 166l13 -6h36l22 12l24 22l8 22v37l-21 29l-22 11h-22l-44 -29l-8 -46v-31zM254 462l21 -21l10 9l8 10l7 26v19l-5 15l-20 19h-9l-19 -21v-30z" />
    <glyph glyph-name="nine" unicode="9" horiz-adv-x="516" 
d="M358 695l31 -12l19 -23l28 -28l24 -40l13 -43l13 -81l-3 -186l-18 -114l-15 -70l-28 -50l-30 -20l-32 -16l-35 -5l-33 -2l-23 -5h-98l-29 5l-33 19l-30 25l-11 20l-10 48l-3 49l-3 26l4 24l9 9l14 7l143 -7l9 -4l-6 -20v-60l5 -11h22l20 15l14 27l10 101v37l-28 -5h-109
l-48 8l-28 21l-15 15l-23 43l-15 45v63l4 43l14 39l35 47l47 39l52 22l65 8h73zM279 571l-19 4h-27l-7 -3l-15 -23l-11 -34v-36l11 -22l31 -16h31l9 3l22 3l3 7l-3 74l-12 31z" />
    <glyph glyph-name="colon" unicode=":" horiz-adv-x="236" 
d="M122 394l22 -6l28 -6l10 -6l20 -26l4 -43l-26 -31h-58l-66 6l-16 8l-6 18l-4 20v18l6 20l10 12l22 10zM122 128l22 -6l28 -6l10 -6l20 -26l4 -43l-26 -31h-58l-66 6l-16 8l-6 18l-4 20v18l6 20l10 12l22 10z" />
    <glyph glyph-name="semicolon" unicode=";" horiz-adv-x="236" 
d="M122 394l22 -6l28 -6l10 -6l20 -26l4 -43l-26 -31h-58l-66 6l-16 8l-6 18l-4 20v18l6 20l10 12l22 10zM122 128l22 -6l28 -6l10 -6l14 -38l4 -58l-4 -6l-40 -164l-24 -14l-34 -4l-20 12l-12 50l-25 136h-1l-6 18l-4 20v18l6 20l10 12l22 10z" />
    <glyph glyph-name="question" unicode="?" horiz-adv-x="502" 
d="M177 -13l-28 3l-11 11v66l20 20l81 5l29 -5l45 -3l15 -7l5 -17v-66l-7 -7l-80 -3l-36 -4zM179 170l-28 7l-4 5l3 115l9 35l15 24l33 29l20 14l30 29l25 40l6 23l-5 30l-12 13l-14 4h-18l-12 -6l-13 -26l-7 -27l-3 -47l-14 -5l-43 6l-27 9l-77 7l-10 6v12l-3 9v49l10 36
l29 60l43 42l31 13l61 9h108l52 -12l44 -23l40 -49l15 -31l9 -36v-48l-6 -30l-12 -30l-13 -21l-36 -31l-29 -18l-19 -30l-8 -33l-10 -66l-2 -38l-5 -14l-6 -3l-45 -6z" />
    <glyph glyph-name="at" unicode="@" horiz-adv-x="631" 
d="M153 33l45 -21l204 6l78 20l16 25h2l22 -8l23 -13v-1l-34 -84l-18 -7l-44 -12l-175 -10h-83l-38 7l-61 21l-32 42l-8 21l-20 155l15 341l14 75l21 42l29 30l35 17l17 6l18 2l34 9h37l7 -2l187 -7l30 -7l65 -23l33 -32l8 -20l12 -24l9 -47v-117l-16 -239l-16 -32l-22 -20
l-46 -18l-50 -8l-76 10l-26 14l-29 18l-31 -12l-76 -1l-39 7l-25 21l-12 31l-4 16v25l16 64l30 30l47 30l27 7h71v15l-11 13l-10 4h-41l-46 -8l-30 -15l-10 -7h-18l-2 4l-8 39v42l-3 10v31l27 14l60 12l61 2l27 4l70 -7l37 -23l28 -38l14 -39l-1 -242l-5 -24l2 -3h16l24 20
l15 45l14 166v135l-11 35l-22 42l-64 14l-67 2l-137 -4l-49 -13l-33 -15l-31 -50l-10 -67l-9 -202l5 -125l14 -58zM275 238l12 -4h32l8 3v43h-26l-24 -8l-12 -11v-13z" />
    <glyph glyph-name="A" unicode="A" horiz-adv-x="559" 
d="M30 1v58l99 584l14 34l12 11l50 12h93l91 -6l40 -11l26 -19l13 -38l10 -52l51 -560l-8 -4l-36 -4h-49l-105 6l-8 13l-3 125l-86 2l-5 -126l-6 -18l-16 -5l-164 -5zM249 313l73 -1l-18 227h-19z" />
    <glyph glyph-name="B" unicode="B" horiz-adv-x="522" 
d="M46 4l-16 15l12 666l12 6l66 -4l23 4l147 4l14 -2l62 -3l38 -12l27 -21l47 -49l8 -20v-80l-12 -52l-16 -42l-25 -35l-34 -32l28 -14l29 -30l26 -36l10 -31v-60l-8 -44l-21 -49l-25 -37l-29 -18l-28 -11l-14 -2l-10 -3l-80 -2l-64 -10zM223 278v-174l35 4l32 18l10 41v70
l-21 33l-41 13zM223 591v-183l35 9l22 24l15 57v50l-4 11l-18 21l-28 11h-22z" />
    <glyph glyph-name="C" unicode="C" horiz-adv-x="501" 
d="M167 8l-59 15l-23 18l-27 36l-13 45l-9 62l-6 150l7 210l10 50l12 27l10 18l35 35l41 19l27 3l20 5l163 -5l48 -14l35 -22l22 -24l6 -21l4 -103l-7 -98l-7 -15l-14 -4h-63l-79 5l-8 5l-1 36l1 21l-2 59l-9 22l-24 7l-22 -24l-11 -36l-8 -75l11 -262l6 -16l28 -8l15 11
l10 14l7 142l24 8h75l9 -4l63 -4l2 -6l5 -107l-8 -74l-10 -35l-19 -12l-34 -30l-32 -15l-31 -3l-37 -6h-133z" />
    <glyph glyph-name="D" unicode="D" horiz-adv-x="518" 
d="M30 1l7 689l4 8l248 -9l48 -8l68 -27l27 -17l15 -17l18 -31l11 -32l10 -78l2 -131l-4 -93l-10 -77l-32 -69l-35 -44l-33 -29l-30 -16l-30 -4l-12 -4l-83 -1l-25 -4l-109 -4l-45 -6zM216 171l-2 -18l14 5l57 8l12 21l6 90l1 191l-4 40l-4 14l-10 10l-68 1z" />
    <glyph glyph-name="E" unicode="E" horiz-adv-x="424" 
d="M54 15l-24 9l6 634l-2 13l2 15l14 6h64l27 -4h170l55 -5l22 -9l6 -7l-2 -91l-7 -20l-9 -8h-115l-39 6l-4 -137h82l75 -7l9 -10l-4 -104l-7 -16l-9 -5h-83l-65 5l4 -128h18l21 4h110l12 -9l5 -13l-4 -97l-9 -16l-19 -16z" />
    <glyph glyph-name="F" unicode="F" horiz-adv-x="421" 
d="M34 -7l-4 684l6 6l119 2l72 5h79l64 -7l31 -10l10 -10l-2 -120l-7 -16l-10 -12l-20 -3h-100l-16 2l-47 -1l7 -95l84 1l36 -8l4 -2l2 -142l-10 -9l-26 -6l-82 -5l2 -181l4 -21v-44l-5 -2l-93 -4l-58 -7h-29z" />
    <glyph glyph-name="G" unicode="G" horiz-adv-x="535" 
d="M221 0l-95 19l-24 12l-26 26l-29 59l-8 35l-9 100l1 180l5 81l14 61l40 74l29 27l50 24l91 2l33 3h91l33 -11l35 -23l9 -9l14 -26l10 -36l3 -84l-7 -32l-19 -17l-15 -5h-60l-17 3l-53 3l-10 22l-2 57l-18 8h-42l-15 -19l-11 -43v-233l4 -69l20 -19l20 -14l14 -5h22l19 6
l6 19v60l-34 -5l-21 5l-7 6l-3 25v67l4 30l23 10l59 6l27 -4l92 -3l22 -6l14 -13l5 -60l-7 -141l-15 -61l-18 -44l-17 -17l-16 -10l-150 -21h-61z" />
    <glyph glyph-name="H" unicode="H" horiz-adv-x="529" 
d="M60 9l-30 8l13 661l13 7l129 5l38 -6l3 -15l-9 -295l36 5l35 1l15 6l14 289l14 12l31 2h114l17 -5v-576l6 -60l-5 -14l-24 -9l-127 -10l-23 5l-3 4v213l-29 5l-51 -4l-18 -5l8 -215l-14 -6l-36 -4l-23 -6z" />
    <glyph glyph-name="I" unicode="I" horiz-adv-x="257" 
d="M53 21l-23 8l11 625l6 30l13 5l121 4l25 -8l16 -9l5 -20l-19 -622l-17 -11l-14 -6h-114z" />
    <glyph glyph-name="J" unicode="J" horiz-adv-x="356" 
d="M147 12l-137 4l1 174l34 -2l36 1l37 3l16 18l8 26l-9 393l4 45l5 19l7 6h81l67 -8l24 -9l5 -504l-21 -77l-16 -36l-21 -19l-37 -19l-52 -12z" />
    <glyph glyph-name="K" unicode="K" horiz-adv-x="505" 
d="M466 9l-140 1l-22 7l-35 83l-30 128l-18 53v-244l-6 -17l-14 -6l-75 -7l-79 5l-9 10l-3 21l-5 23l2 617l7 4l75 4h95l4 -6v-222l20 20l28 25l20 43l10 29l6 32l2 40l15 31l13 6l149 2l16 -4v-35l-7 -68l-7 -29l-31 -65l-29 -44l-34 -25l-58 -19l-19 -5v-3l19 -6l17 -18
l20 -16l46 -54l59 -181l27 -108l-8 -4h-14z" />
    <glyph glyph-name="L" unicode="L" horiz-adv-x="386" 
d="M44 1l-7 7l-7 15l21 677l7 3l41 5h39l53 -10l39 -2l10 -10l-22 -512h30l16 -2h72l26 -9l12 -24l2 -17v-103l-8 -16h-88l-90 6l-88 -12z" />
    <glyph glyph-name="M" unicode="M" horiz-adv-x="759" 
d="M708 0l-151 -2l-17 9l1 10l2 445l-106 -162l-16 -16l-50 -7l-50 -1l-14 10l-90 170l-1 -412l-6 -33l-17 -8h-142l-9 -2l-12 11l12 659l13 14l57 10l163 -3l19 -19l57 -116l10 -27l6 -5l73 75l57 71l28 9l163 9l22 -6l12 -12l7 -19l-8 -648z" />
    <glyph glyph-name="N" unicode="N" horiz-adv-x="570" 
d="M30 -8l15 676l8 17l51 7h98l18 -9l16 -16l114 -277l3 286l11 10l10 3l41 5h64l51 -7l10 -10l-15 -650l-5 -18l-17 -6l-14 -2l-27 -9l-64 5l-44 3l-146 332l-2 -31l8 -280l-6 -22l-13 -3l-34 -2l-41 -7l-13 -4z" />
    <glyph glyph-name="O" unicode="O" horiz-adv-x="548" 
d="M188 1l-38 7l-66 30l-27 33l-8 21l-14 57l-5 43l3 182l11 141l14 75l21 42l29 30l35 17l17 6l18 2l34 9h37l7 -2l105 -9l30 -7l65 -23l33 -32l8 -20l12 -24l9 -47v-117l-19 -213l-9 -59l-18 -61l-9 -15l-37 -39l-18 -7l-44 -12l-93 -8h-83zM225 158l39 -14l43 26l12 46
l12 234l-8 68l-8 24l-39 11l-31 -10l-10 -10l-13 -21l-7 -330z" />
    <glyph glyph-name="P" unicode="P" horiz-adv-x="526" 
d="M56 -11l-14 7l-12 18l15 671l15 5l240 -7l25 -5l62 -3l43 -10l31 -20l24 -40l11 -32v-59l-6 -71l-25 -101l-23 -45l-35 -41l-40 -22l-62 -9h-93v-158l-5 -56l-7 -19l-11 -5h-103zM217 360l44 7l28 23l21 85v52l-5 24l-13 13l-69 4z" />
    <glyph glyph-name="Q" unicode="Q" horiz-adv-x="539" 
d="M345 -141l-108 69l-17 6l-18 9l-23 3v6l2 3l12 17l28 11l16 11l-68 10l-46 18l-31 23l-25 25l-13 25l-24 108l11 229l20 111l30 64l54 54l51 25l32 8h68l11 2h45l22 -9l27 -9l37 -18l28 -29l28 -52l8 -45l7 -69v-98l-5 -69l-16 -110l-18 -70l-14 -37l-32 -40l-30 -24
l-25 -10l-17 -5l49 -9l16 -6l46 -31v-5l-7 -3l-11 -2l-10 -10l-6 -4l-26 -25l-38 -48h-20zM225 152l20 -18l32 -4l20 16l7 22l14 377l-29 7l-30 -8l-20 -18l-19 -236v-129z" />
    <glyph glyph-name="R" unicode="R" horiz-adv-x="555" 
d="M492 2l-140 12l-22 7l-49 94l-13 44l-27 54l-29 38l5 -217l-5 -16l-13 -6l-160 6v4l2 5l-7 646l-4 9l6 6l125 7l154 -3l60 -6l43 -14l49 -38l35 -41l18 -56l5 -28v-67l-7 -20l-21 -47l-48 -43l-23 -17l-63 -12l27 -16l42 -39l16 -23l46 -102l27 -119l-8 -4h-14zM221 570
v-137h69l24 6l25 25l6 17v39l-8 23l-12 19l-30 11h-65z" />
    <glyph glyph-name="S" unicode="S" horiz-adv-x="539" 
d="M239 -5l-75 24l-19 5l-41 19l-34 35l-20 33l-19 56l-1 53l9 8l36 9h109l22 -9l3 -7l3 -52l8 -19l16 -14h18l26 5l22 19l6 19l-3 34l-27 21l-38 16l-19 12l-115 30l-25 14l-32 45l-19 88v35l5 39l14 42l29 48l45 46l19 15l66 28l46 7h53l79 -27l57 -33l16 -18l34 -49
l9 -44l7 -85l-8 -13l-7 -4h-115l-30 7l-8 7l-6 31l-9 27l-17 14l-15 6h-16l-34 -7l-16 -26l-5 -38l5 -9l8 -20l50 -18h50l63 -18l22 -14l40 -31l11 -17l12 -30l18 -58l3 -90l-9 -32l-34 -60l-25 -24l-45 -17l-26 -7l-59 -7h-68z" />
    <glyph glyph-name="T" unicode="T" horiz-adv-x="491" 
d="M122 10l26 429v74h-108l-7 6l-3 96l3 83l7 2h11l5 -1l222 1l51 -5l91 4l28 -3l6 -9l7 -7l-16 -171l-13 -6l-48 -5l-28 4l-23 6l-23 -493l-9 -9h-167z" />
    <glyph glyph-name="U" unicode="U" horiz-adv-x="571" 
d="M264 2l-27 2l-51 10l-54 25l-49 35l-34 71l-19 111l13 439l7 3l57 -3h114l12 -11v-28l-9 -78l-5 -322l5 -40l10 -24l16 -15l37 -8l31 5l15 25l11 82l3 413l12 6l39 -7h137l6 -4l-9 -398l-23 -175l-13 -38l-41 -39l-19 -11l-56 -21l-46 -9l-56 2z" />
    <glyph glyph-name="V" unicode="V" horiz-adv-x="637" 
d="M249 7l-22 13l-15 30l-178 608l-4 27l12 6h162l21 -7l13 -26l75 -332l11 28l75 311l14 13l38 10l135 5l17 -9l4 -22l-6 -8l-179 -577l-23 -44l-34 -22l-27 -9h-55z" />
    <glyph glyph-name="W" unicode="W" horiz-adv-x="842" 
d="M522 1l-31 8l-12 25l-26 43l-68 72l-18 13l-8 -7l-74 -153h-10l-10 2l-82 -2l-18 -2h-48l-13 6l-74 637v41l7 7h141l27 -5l21 -10l4 -9l4 -21l27 -396l49 125l11 45l16 36l12 6h36l16 3h25l7 -7l23 -37l26 -52l11 -31l35 -73l22 94l52 314l13 13l24 8h145l6 2h22
l-92 -495l-45 -172l-10 -19l-16 -12l-9 -3h-51z" />
    <glyph glyph-name="X" unicode="X" horiz-adv-x="610" 
d="M234 0l-220 -3l-4 4l9 19l182 333l8 10l-174 323l-4 3v7l8 4l125 -1l75 -8l14 -8l81 -172l86 175l22 3h148l10 -6v-17l-173 -336l161 -309l-4 -14l-34 -3h-111l-18 -4l-17 14l-87 155z" />
    <glyph glyph-name="Y" unicode="Y" horiz-adv-x="599" 
d="M43 1l-6 6v39l-4 32v71l6 6l76 5l11 3l24 2l3 5l36 22l18 26l-197 459v13l12 6l25 -3l19 -5l118 6l35 -6l2 -10l89 -248l84 256l12 12h9l13 -4h68l16 4h73l4 -4l-100 -292l-7 -30l-8 -23l-7 -26l-15 -38l-7 -28l-52 -112l-31 -45l-25 -27l-54 -45l-33 -18l-56 -6l-11 -2
l-90 -2l-8 -2h-27z" />
    <glyph glyph-name="Z" unicode="Z" horiz-adv-x="526" 
d="M53 7l-2 25l-6 13v113l8 5l29 32l109 151l82 146l11 17l-9 2l-222 2l-9 9l-12 142l-2 5l6 16h393l29 -6l27 -9l5 -8l6 -38v-140l-13 -10l-23 -49l-77 -106l-58 -103l-26 -35h168l9 -4l10 -12l5 -40l-3 -134h-21l-6 5l-397 6z" />
    <glyph glyph-name="underscore" unicode="_" horiz-adv-x="596" 
d="M30 66l532 -3l2 -15l2 -40l-528 -8v8l-8 20v38z" />
    <glyph glyph-name="a" unicode="a" 
d="M285 -14l-7 6l-9 26l-40 -15l-97 -2l-50 9l-32 28l-16 40l-4 21v33l20 83l38 40l60 39l35 9h91v19l-14 17l-13 6h-53l-58 -11l-39 -20l-13 -9h-22l-3 6l-11 50v55l-3 14v40l34 18l77 16l78 2l35 6l89 -10l48 -30l36 -49l18 -51l-2 -316l-9 -42l-22 -10l-57 -8l-48 -14
h-27zM211 144l15 -5h41l11 3v57h-34l-30 -11l-16 -15v-16z" />
    <glyph glyph-name="b" unicode="b" horiz-adv-x="527" 
d="M43 663l-2 19l7 3l35 2l34 -4l111 6l2 -3l-4 -220l122 -10l69 -26l46 -44l26 -53l8 -49v-54l-7 -41l-22 -74l-21 -33l-13 -18l-32 -28l-36 -19l-42 -9l-82 -8l-90 5l-77 -1l-15 1l-26 -1l-4 14l2 6zM231 321l-4 -175l42 -2l21 15l12 18l9 26l-4 64l-14 29l-17 16l-35 10z
" />
    <glyph glyph-name="c" unicode="c" 
d="M159 8l-59 15l-19 18l-27 36l-13 45l-9 62l-2 56l5 88l10 50l12 27l10 18l31 35l41 19l27 3l20 5l163 -5l48 -14l31 -22l22 -24l6 -21l4 -103l-4 -17l-7 -15l-14 -4h-59l-79 5l-8 5l-3 14l1 21h-3l-9 22l-24 7l-22 -24l-11 -36l-6 -27l7 -78l6 -16l28 -8l15 11l16 14
l7 30l24 8h69l9 -4l55 -4l2 -6l1 -75l-4 -10l-10 -35l-11 -12l-34 -30l-32 -15l-31 -3l-37 -6h-133z" />
    <glyph glyph-name="d" unicode="d" horiz-adv-x="520" 
d="M296 147l-2 176h-10l-35 -12l-17 -17l-15 -29l-5 -65l10 -25l11 -18l21 -14zM488 694l-3 -19l3 -640l2 -5l-2 -5l-2 -10h-26l-15 -2l-76 -3l-90 -10l-82 4l-41 7l-36 18l-32 26l-13 17l-20 32l-19 73l-6 41v54l10 49l26 55l36 46l77 30l122 16l-3 114l2 26v80l2 3h111
l33 6h35z" />
    <glyph glyph-name="e" unicode="e" horiz-adv-x="498" 
d="M158 8l-59 15l-18 18l-27 36l-13 45l-9 62l-2 56l5 108l10 35l12 27l10 18l30 35l41 19l27 3l20 5l163 -5l57 -14l31 -22l22 -24l6 -21l4 -88l-1 -2h1l-6 -46l-6 -28l-6 -12l-8 -10l-38 -6l-79 -4l-110 -13l3 -42l6 -16l28 -8l23 3l20 12v22l88 4l18 -4l59 2l2 -6l-3 -43
l-4 -10l-10 -35l-11 -12l-43 -30l-32 -15l-31 -3l-37 -6h-133zM217 294l-1 -6l70 9l-1 7l1 21h-3l-9 22l-24 7l-22 -24z" />
    <glyph glyph-name="f" unicode="f" horiz-adv-x="405" 
d="M333 323l-80 3l3 -256l-4 -45l-5 -19l-7 -6h-82l-62 8l-24 9v311l-33 1l-9 87l6 50l10 9h26v113l21 77l23 36l21 19l15 9l62 22l32 3l142 2v-172h-56l-52 -8l-24 -24l-4 -37v-39l126 1l9 -2l8 -42l-7 -102l-7 -6z" />
    <glyph glyph-name="g" unicode="g" horiz-adv-x="513" 
d="M309 -185h-219v50l8 48l-8 44v22h20l38 2h22l50 -4l48 2h2l33 14v46l-38 -5l-57 5l-94 33l-38 40l-36 74l-10 49v22l6 41l30 73l20 32l13 17l58 44l41 7l82 4l90 -10l63 -3l15 -2l28 -20v-19l2 -1l5 -441l-21 -77l-23 -36l-21 -19l-15 -9l-62 -22zM295 184v144l-40 4
l-21 -14l-11 -18l-10 -25l5 -33l15 -29l17 -17l35 -12h10z" />
    <glyph glyph-name="h" unicode="h" horiz-adv-x="502" 
d="M224 321l-7 -320l-72 4l-75 -1l-10 1l-26 -1l-4 14l2 6l11 639l-2 19l7 3l30 2l45 -4l98 6l2 -3l-4 -220l112 -10l61 -26l46 -44l26 -53l8 -49l-4 -262l-3 -19l-87 7l-89 -9l1 3v263l-14 29l-17 16l-25 10z" />
    <glyph glyph-name="i" unicode="i" horiz-adv-x="253" 
d="M36 11l2 459l-2 22l14 7h88l58 -11l16 -8l4 -11l7 -434l-4 -13l-8 -14h-168zM115 571l-66 15l-13 6l-6 95v4l6 7h126l43 -10l11 -7v-94l-7 -16l-19 -5z" />
    <glyph glyph-name="j" unicode="j" horiz-adv-x="246" 
d="M43 -223h-143v50l8 48l-8 44v22h20l38 2h22l22 -2h2l23 13l8 8l-7 490l5 19l7 6h94l58 -8l24 -9l-4 -468h1v-51l-14 -77l-35 -55l-15 -9l-74 -22zM108 574l-30 -4l-30 6l-13 6l-6 95v4l6 7h113l43 -10l11 -7v-81l-7 -16l-19 -5z" />
    <glyph glyph-name="k" unicode="k" horiz-adv-x="509" 
d="M470 9l-140 1l-22 7l-35 83l-30 46l-18 53v-162l-6 -17l-14 -6l-75 -7l-83 5l-9 10l-3 21l-5 23l9 617l7 4l72 4h95l4 -6l-2 -388h4l25 29l4 14l11 6l10 44v8h5l2 40l15 31l13 6l173 2l16 -4v-35l-6 -36l-7 -29l-35 -29l-46 -34l-52 -22l20 -16l46 -54l59 -99l27 -108
l-8 -4h-14z" />
    <glyph glyph-name="l" unicode="l" horiz-adv-x="342" 
d="M279 4l-128 2l-18 3l-103 -1l9 676l4 4h13l4 -4l82 3l54 -3l13 -4l6 -10l-2 -310l-5 -47v-123l67 -5l39 -6l18 -9l-8 -161l-6 -7h-17z" />
    <glyph glyph-name="m" unicode="m" horiz-adv-x="746" 
d="M475 319l-11 -1l6 -34l-4 -262l-3 -19l-73 7l-105 -9l1 3v263l-14 29l-17 16l-25 10l-10 -1l-7 -320l-72 4l-66 -1l-15 1l-26 -1l-4 14l2 6l4 420l-2 19l7 3l35 2l23 -4l111 6l2 -3l-2 -33l48 22l50 2l48 -6l44 -18l27 -31l36 31l40 19l50 2l48 -6l31 -18l46 -34l30 -67
l8 -49l-4 -262l-3 -19l-87 7l-92 -9l1 3v263l-14 29l-17 16z" />
    <glyph glyph-name="n" unicode="n" horiz-adv-x="509" 
d="M225 320l-7 -320l-72 4l-71 -1l-15 1l-26 -1l-4 14l2 6l4 420l-2 19l7 3l35 2l28 -4l111 6l2 -3l-2 -33l48 22l50 2l48 -6l44 -18l36 -34l30 -67l8 -49l-4 -262l-3 -19l-77 7l-105 -9l1 3v263l-14 29l-17 16l-25 10z" />
    <glyph glyph-name="o" unicode="o" horiz-adv-x="527" 
d="M497 334l-4 -153l-8 -47l-23 -52l-9 -15l-37 -39l-18 -7l-25 -12l-106 -8h-83l-38 7l-60 30l-27 33l-8 21l-14 57l-5 43v22h-2l5 103l14 75l21 42l29 30l29 17l17 6l18 2l34 9h37l7 -2l118 -9l30 -7l46 -23l33 -32l8 -20l12 -24zM221 158l39 -14l43 26l12 46v6h-1l2 30
l-8 68l-8 24l-39 11l-31 -10l-10 -10l-8 -21l-1 -50h1l-1 -82z" />
    <glyph glyph-name="p" unicode="p" horiz-adv-x="508" 
d="M35 -159l4 18l-8 598l-1 5l4 14l24 -2h172l122 -21l33 -22l31 -28l32 -49l27 -70l3 -39l-5 -51l-9 -45l-23 -49l-44 -39l-71 -22l-114 -4l4 -107l-2 -24l1 -75l-3 -2l-96 9l-42 -2l-32 3zM215 335l2 -165l10 -1l32 9l17 14l13 26l4 60l-9 25l-10 18l-21 15z" />
    <glyph glyph-name="q" unicode="q" horiz-adv-x="506" 
d="M284 165l4 169l-39 1l-19 -14l-11 -19l-9 -24l4 -62l13 -27l15 -15l32 -10zM465 -159l4 -18l-7 -3l-33 -3l-40 4l-104 -8l-1 3l1 77l-1 25l4 109l-112 8l-71 24l-44 41l-22 51l-9 46l1 52l5 40l30 71l19 32l12 17l31 27l33 20l38 8l76 10l82 -5l77 3l14 -1l24 2l2 -10
l2 -4l-3 -5z" />
    <glyph glyph-name="r" unicode="r" horiz-adv-x="440" 
d="M221 331l4 -331l-72 4l-71 -1l-15 1l-26 -1l-4 14l2 6l-7 431l-2 19l7 3l35 2l45 -4l94 6l2 -3l-2 -33l48 22l50 2l48 -6l44 -18l29 -22l-7 -11l-18 -34l-38 -52l-36 -32l-30 -20l-14 -8v12l-14 29l-17 16l-25 10z" />
    <glyph glyph-name="s" unicode="s" horiz-adv-x="514" 
d="M219 -5l-60 5l-53 16l-40 32l-30 59l-4 54l12 11l30 -6l25 1l77 -13l3 -7l-2 -13l-1 -20l4 -14l59 -7l23 10l16 25l-8 20l-24 18l-74 14l-95 12l-13 8l-30 50l-4 75l40 103l40 34l34 20l67 19h100l77 -28l55 -34l20 -19l10 -50l6 -45l-6 -15l-8 -10l-7 -4h-100l-30 7
l-7 7l-9 3v34l-24 10l-60 -7l-10 -26l6 -21l22 -21l142 -15l58 -15l38 -66v-73l-38 -61l-27 -25l-46 -18l-26 -7l-60 -7h-68z" />
    <glyph glyph-name="t" unicode="t" horiz-adv-x="441" 
d="M318 335l-3 -304l-8 -13l-20 -10l-138 3l-12 6l-2 10v310l-119 3l-6 74l4 43l7 7l114 -2l-1 226l12 5l-12 6v6l68 2l68 -5l30 -11l20 -3l-1 -225l100 1l6 -2l6 -35l-5 -87l-5 -5h-103z" />
    <glyph glyph-name="u" unicode="u" horiz-adv-x="499" 
d="M283 149l7 320l72 -4l62 1l15 -1l26 1l4 -14l-2 -6l-4 -420l2 -19l-7 -3l-35 -2l-19 4l-111 -6l-2 3l2 33l-48 -22l-50 -2l-48 6l-33 18l-46 34l-30 67l-8 49l4 262l3 19l87 -7l94 9l-1 -3v-263l14 -29l17 -16l25 -10z" />
    <glyph glyph-name="v" unicode="v" horiz-adv-x="562" 
d="M218 6l-19 8l-14 22l-151 419l-4 19l11 4h157l18 -5l12 -18l14 -77l7 -22l27 -122l51 226l13 8l33 8l141 3l14 -6l4 -15l-5 -6l-157 -398l-21 -31l-29 -15l-24 -6h-48z" />
    <glyph glyph-name="w" unicode="w" horiz-adv-x="745" 
d="M270 161l8 24l4 262l3 19l68 -7l26 2v-2l20 -1l64 7l3 -19l4 -262l8 -24l26 -4l18 8l9 40v263l-1 3l91 -9l87 7l3 -19l4 -262l-8 -49l-30 -67l-46 -34l-30 -18l-69 -7l-68 10l-53 39l-32 51l-32 -54l-50 -28l-52 -14l-50 -2l-48 6l-33 18l-46 34l-30 67l-8 49l4 262l3 19
l87 -7l94 9l-1 -3v-263l9 -40l18 -8z" />
    <glyph glyph-name="x" unicode="x" horiz-adv-x="530" 
d="M516 461l-145 -214l149 -226l-4 -14l-34 -3h-111l-37 -4l-17 14l-52 76l-52 -76l-17 -14l-37 4h-111l-34 3l-4 14l149 226l-145 214l-4 3v7l8 4l125 -1l75 -8l14 -8l33 -50l33 50l14 8l75 8l125 1l8 -4v-7z" />
    <glyph glyph-name="y" unicode="y" horiz-adv-x="590" 
d="M49 -188l-6 6v39l-4 32v71l6 6l51 -2l34 2l46 8l20 12l7 26l-27 80l-166 366v13l12 6l25 -3l19 -5l121 3l35 -6l2 -10l84 -256l11 49l66 217l12 12h9l13 -4h68l16 4h73l4 -4l-95 -278l-7 -30l-8 -23l-7 -26l-15 -38l-7 -28l-52 -112l-31 -45l-25 -27l-43 -33l-40 -14
l-60 -5l-11 -2l-80 -2l-8 -2h-27z" />
    <glyph glyph-name="z" unicode="z" horiz-adv-x="483" 
d="M62 5l-2 25l-6 13l-3 117l170 182l-9 2l-167 2l-9 9l-4 110l-2 5l6 16l342 1l29 -6l27 -9l5 -8l6 -38l-4 -112l-155 -178l141 9l9 -4l10 -12l5 -40l2 -89h-21l-6 5l-353 -5z" />
    <glyph glyph-name="Agrave" unicode="&#xc0;" horiz-adv-x="559" 
d="M30 1v58l99 584l14 34l12 11l50 12h93l91 -6l40 -11l26 -19l13 -38l10 -52l51 -560l-8 -4l-36 -4h-49l-105 6l-8 13l-3 125l-86 2l-5 -126l-6 -18l-16 -5l-164 -5zM249 313l73 -1l-18 227h-19zM304 863l76 -98v-10l-95 1l-88 72v12l10 11l44 17h41z" />
    <glyph glyph-name="Aacute" unicode="&#xc1;" horiz-adv-x="559" 
d="M30 1v58l99 584l14 34l12 11l50 12h93l91 -6l40 -11l26 -19l13 -38l10 -52l51 -560l-8 -4l-36 -4h-49l-105 6l-8 13l-3 125l-86 2l-5 -126l-6 -18l-16 -5l-164 -5zM249 313l73 -1l-18 227h-19zM197 765l76 98l12 5h41l44 -17l10 -11v-12l-88 -72l-95 -1v10z" />
    <glyph glyph-name="Acircumflex" unicode="&#xc2;" horiz-adv-x="559" 
d="M30 1v58l99 584l14 34l12 11l50 12h93l91 -6l40 -11l26 -19l13 -38l10 -52l51 -560l-8 -4l-36 -4h-49l-105 6l-8 13l-3 125l-86 2l-5 -126l-6 -18l-16 -5l-164 -5zM249 313l73 -1l-18 227h-19zM136 751l-13 5l4 8l85 104l17 14l20 2h104l16 -6l27 -25l36 -53l8 -17
l14 -12l3 -10l-135 -10l-19 42l-7 19l-4 5l-21 -30l-17 -31l-10 -9z" />
    <glyph glyph-name="Atilde" unicode="&#xc3;" horiz-adv-x="559" 
d="M30 1v58l99 584l14 34l12 11l50 12h93l91 -6l40 -11l26 -19l13 -38l10 -52l51 -560l-8 -4l-36 -4h-49l-105 6l-8 13l-3 125l-86 2l-5 -126l-6 -18l-16 -5l-164 -5zM249 313l73 -1l-18 227h-19zM302 759l-44 35l-21 6h-14l-11 -21v-23l-4 -2l-94 1l1 5v74l15 30l30 25
l38 15l35 2l21 -2l27 -12l24 -13l29 -29h19l12 23l5 14l100 -4l-22 -99l-8 -17l-11 -10l-39 -11h-50z" />
    <glyph glyph-name="Adieresis" unicode="&#xc4;" horiz-adv-x="559" 
d="M30 1v58l99 584l14 34l12 11l50 12h93l91 -6l40 -11l26 -19l13 -38l10 -52l51 -560l-8 -4l-36 -4h-49l-105 6l-8 13l-3 125l-86 2l-5 -126l-6 -18l-16 -5l-164 -5zM249 313l73 -1l-18 227h-19zM134 823l10 19l11 6h58l10 -6l2 -13l4 3l6 -7v-35l-3 -36l-7 -12l-8 -4
l-61 3l-13 8l-11 17l-4 13v19zM332 825l10 19l11 6h58l10 -6l2 -13l4 3l6 -7v-35l-3 -36l-7 -12l-8 -4l-61 3l-13 8l-11 17l-4 13v19z" />
    <glyph glyph-name="Aring" unicode="&#xc5;" horiz-adv-x="559" 
d="M30 1v58l99 584l14 34l12 11l50 12h93l91 -6l40 -11l26 -19l13 -38l10 -52l51 -560l-8 -4l-36 -4h-49l-105 6l-8 13l-3 125l-86 2l-5 -126l-6 -18l-16 -5l-164 -5zM249 313l73 -1l-18 227h-19zM319 958l18 -6l26 -4l21 -11l14 -15l12 -9l17 -29v-36l-13 -45l-17 -24
l-25 -14l-79 -10l-72 8l-30 23l-18 17l-18 29l2 35l20 44l32 30l41 13zM300 901l-25 -4l-8 -9l-9 -23l1 -8l11 -24l1 -2l20 -7h15l15 5l10 18l1 16l-7 27z" />
    <glyph glyph-name="AE" unicode="&#xc6;" horiz-adv-x="765" 
d="M395 15l-24 9l2 234l-69 -2l-62 -256h-192l-20 30l252 656l173 6l27 -4h170l55 -5l22 -9l6 -7l-2 -91l-7 -20l-9 -8h-115l-39 6l-4 -137h82l75 -7l9 -10l-4 -104l-7 -16l-9 -5h-83l-65 5l4 -128h18l21 4h110l12 -9l5 -13l-4 -97l-9 -16l-19 -16zM330 384l52 4l-7 123z
" />
    <glyph glyph-name="Ccedilla" unicode="&#xc7;" horiz-adv-x="501" 
d="M167 8l-59 15l-23 18l-27 36l-13 45l-9 62l-6 150l7 210l10 50l12 27l10 18l35 35l41 19l27 3l20 5l163 -5l48 -14l35 -22l22 -24l6 -21l4 -103l-7 -98l-7 -15l-14 -4h-63l-79 5l-8 5l-1 36l1 21l-2 59l-9 22l-24 7l-22 -24l-11 -36l-8 -75l11 -262l6 -16l28 -8l15 11
l10 14l7 142l24 8h75l9 -4l63 -4l2 -6l5 -107l-8 -74l-10 -35l-19 -12l-34 -30l-32 -15l-31 -3l-37 -6h-11v-4l3 -28l53 -8l26 -12l14 -16l6 -34l-6 -32v-10l-10 -24l-40 -36l-42 -19l-92 -17l-12 6l-8 12v12l-4 60l32 4l74 2l8 2l20 10l2 16l-6 14l-10 12l-56 4h-60l-3 86
h-11z" />
    <glyph glyph-name="Egrave" unicode="&#xc8;" horiz-adv-x="424" 
d="M54 15l-24 9l6 634l-2 13l2 15l14 6h64l27 -4h170l55 -5l22 -9l6 -7l-2 -91l-7 -20l-9 -8h-115l-39 6l-4 -137h82l75 -7l9 -10l-4 -104l-7 -16l-9 -5h-83l-65 5l4 -128h18l21 4h110l12 -9l5 -13l-4 -97l-9 -16l-19 -16zM228 845l76 -98v-10l-95 1l-88 72v12l10 11l44 17
h41z" />
    <glyph glyph-name="Eacute" unicode="&#xc9;" horiz-adv-x="424" 
d="M54 15l-24 9l6 634l-2 13l2 15l14 6h64l27 -4h170l55 -5l22 -9l6 -7l-2 -91l-7 -20l-9 -8h-115l-39 6l-4 -137h82l75 -7l9 -10l-4 -104l-7 -16l-9 -5h-83l-65 5l4 -128h18l21 4h110l12 -9l5 -13l-4 -97l-9 -16l-19 -16zM121 747l76 98l12 5h41l44 -17l10 -11v-12l-88 -72
l-95 -1v10z" />
    <glyph glyph-name="Ecircumflex" unicode="&#xca;" horiz-adv-x="424" 
d="M54 15l-24 9l6 634l-2 13l2 15l14 6h64l27 -4h170l55 -5l22 -9l6 -7l-2 -91l-7 -20l-9 -8h-115l-39 6l-4 -137h82l75 -7l9 -10l-4 -104l-7 -16l-9 -5h-83l-65 5l4 -128h18l21 4h110l12 -9l5 -13l-4 -97l-9 -16l-19 -16zM60 733l-13 5l4 8l85 104l17 14l20 2h104l16 -6
l27 -25l36 -53l8 -17l14 -12l3 -10l-135 -10l-19 42l-7 19l-4 5l-21 -30l-17 -31l-10 -9z" />
    <glyph glyph-name="Edieresis" unicode="&#xcb;" horiz-adv-x="424" 
d="M54 15l-24 9l6 634l-2 13l2 15l14 6h64l27 -4h170l55 -5l22 -9l6 -7l-2 -91l-7 -20l-9 -8h-115l-39 6l-4 -137h82l75 -7l9 -10l-4 -104l-7 -16l-9 -5h-83l-65 5l4 -128h18l21 4h110l12 -9l5 -13l-4 -97l-9 -16l-19 -16zM58 805l10 19l11 6h58l10 -6l2 -13l4 3l6 -7v-35
l-3 -36l-7 -12l-8 -4l-61 3l-13 8l-11 17l-4 13v19zM256 807l10 19l11 6h58l10 -6l2 -13l4 3l6 -7v-35l-3 -36l-7 -12l-8 -4l-61 3l-13 8l-11 17l-4 13v19z" />
    <glyph glyph-name="Igrave" unicode="&#xcc;" horiz-adv-x="257" 
d="M53 21l-23 8l11 625l6 30l13 5l121 4l25 -8l16 -9l5 -20l-19 -622l-17 -11l-14 -6h-114zM134 853l76 -98v-10l-95 1l-88 72v12l10 11l44 17h41z" />
    <glyph glyph-name="Iacute" unicode="&#xcd;" horiz-adv-x="257" 
d="M53 21l-23 8l11 625l6 30l13 5l121 4l25 -8l16 -9l5 -20l-19 -622l-17 -11l-14 -6h-114zM27 755l76 98l12 5h41l44 -17l10 -11v-12l-88 -72l-95 -1v10z" />
    <glyph glyph-name="Icircumflex" unicode="&#xce;" horiz-adv-x="257" 
d="M53 21l-23 8l11 625l6 30l13 5l121 4l25 -8l16 -9l5 -20l-19 -622l-17 -11l-14 -6h-114zM-34 741l-13 5l4 8l85 104l17 14l20 2h104l16 -6l27 -25l36 -53l8 -17l14 -12l3 -10l-135 -10l-19 42l-7 19l-4 5l-21 -30l-17 -31l-10 -9z" />
    <glyph glyph-name="Idieresis" unicode="&#xcf;" horiz-adv-x="257" 
d="M53 21l-23 8l11 625l6 30l13 5l121 4l25 -8l16 -9l5 -20l-19 -622l-17 -11l-14 -6h-114zM-36 813l10 19l11 6h58l10 -6l2 -13l4 3l6 -7v-35l-3 -36l-7 -12l-8 -4l-61 3l-13 8l-11 17l-4 13v19zM162 815l10 19l11 6h58l10 -6l2 -13l4 3l6 -7v-35l-3 -36l-7 -12l-8 -4
l-61 3l-13 8l-11 17l-4 13v19z" />
    <glyph glyph-name="Ntilde" unicode="&#xd1;" horiz-adv-x="570" 
d="M30 -8l15 676l8 17l51 7h98l18 -9l16 -16l114 -277l3 286l11 10l10 3l41 5h64l51 -7l10 -10l-15 -650l-5 -18l-17 -6l-14 -2l-27 -9l-64 5l-44 3l-146 332l-2 -31l8 -280l-6 -22l-13 -3l-34 -2l-41 -7l-13 -4zM308 741l-44 35l-21 6h-14l-11 -21v-23l-4 -2l-94 1l1 5v74
l15 30l30 25l38 15l35 2l21 -2l27 -12l24 -13l29 -29h19l12 23l5 14l100 -4l-22 -99l-8 -17l-11 -10l-39 -11h-50z" />
    <glyph glyph-name="Ograve" unicode="&#xd2;" horiz-adv-x="548" 
d="M188 1l-38 7l-66 30l-27 33l-8 21l-14 57l-5 43l3 182l11 141l14 75l21 42l29 30l35 17l17 6l18 2l34 9h37l7 -2l105 -9l30 -7l65 -23l33 -32l8 -20l12 -24l9 -47v-117l-19 -213l-9 -59l-18 -61l-9 -15l-37 -39l-18 -7l-44 -12l-93 -8h-83zM225 158l39 -14l43 26l12 46
l12 234l-8 68l-8 24l-39 11l-31 -10l-10 -10l-13 -21l-7 -330zM298 859l76 -98v-10l-95 1l-88 72v12l10 11l44 17h41z" />
    <glyph glyph-name="Oacute" unicode="&#xd3;" horiz-adv-x="548" 
d="M188 1l-38 7l-66 30l-27 33l-8 21l-14 57l-5 43l3 182l11 141l14 75l21 42l29 30l35 17l17 6l18 2l34 9h37l7 -2l105 -9l30 -7l65 -23l33 -32l8 -20l12 -24l9 -47v-117l-19 -213l-9 -59l-18 -61l-9 -15l-37 -39l-18 -7l-44 -12l-93 -8h-83zM225 158l39 -14l43 26l12 46
l12 234l-8 68l-8 24l-39 11l-31 -10l-10 -10l-13 -21l-7 -330zM191 761l76 98l12 5h41l44 -17l10 -11v-12l-88 -72l-95 -1v10z" />
    <glyph glyph-name="Ocircumflex" unicode="&#xd4;" horiz-adv-x="548" 
d="M188 1l-38 7l-66 30l-27 33l-8 21l-14 57l-5 43l3 182l11 141l14 75l21 42l29 30l35 17l17 6l18 2l34 9h37l7 -2l105 -9l30 -7l65 -23l33 -32l8 -20l12 -24l9 -47v-117l-19 -213l-9 -59l-18 -61l-9 -15l-37 -39l-18 -7l-44 -12l-93 -8h-83zM225 158l39 -14l43 26l12 46
l12 234l-8 68l-8 24l-39 11l-31 -10l-10 -10l-13 -21l-7 -330zM130 747l-13 5l4 8l85 104l17 14l20 2h104l16 -6l27 -25l36 -53l8 -17l14 -12l3 -10l-135 -10l-19 42l-7 19l-4 5l-21 -30l-17 -31l-10 -9z" />
    <glyph glyph-name="Otilde" unicode="&#xd5;" horiz-adv-x="548" 
d="M188 1l-38 7l-66 30l-27 33l-8 21l-14 57l-5 43l3 182l11 141l14 75l21 42l29 30l35 17l17 6l18 2l34 9h37l7 -2l105 -9l30 -7l65 -23l33 -32l8 -20l12 -24l9 -47v-117l-19 -213l-9 -59l-18 -61l-9 -15l-37 -39l-18 -7l-44 -12l-93 -8h-83zM225 158l39 -14l43 26l12 46
l12 234l-8 68l-8 24l-39 11l-31 -10l-10 -10l-13 -21l-7 -330zM296 755l-44 35l-21 6h-14l-11 -21v-23l-4 -2l-94 1l1 5v74l15 30l30 25l38 15l35 2l21 -2l27 -12l24 -13l29 -29h19l12 23l5 14l100 -4l-22 -99l-8 -17l-11 -10l-39 -11h-50z" />
    <glyph glyph-name="Odieresis" unicode="&#xd6;" horiz-adv-x="548" 
d="M188 1l-38 7l-66 30l-27 33l-8 21l-14 57l-5 43l3 182l11 141l14 75l21 42l29 30l35 17l17 6l18 2l34 9h37l7 -2l105 -9l30 -7l65 -23l33 -32l8 -20l12 -24l9 -47v-117l-19 -213l-9 -59l-18 -61l-9 -15l-37 -39l-18 -7l-44 -12l-93 -8h-83zM225 158l39 -14l43 26l12 46
l12 234l-8 68l-8 24l-39 11l-31 -10l-10 -10l-13 -21l-7 -330zM128 819l10 19l11 6h58l10 -6l2 -13l4 3l6 -7v-35l-3 -36l-7 -12l-8 -4l-61 3l-13 8l-11 17l-4 13v19zM326 821l10 19l11 6h58l10 -6l2 -13l4 3l6 -7v-35l-3 -36l-7 -12l-8 -4l-61 3l-13 8l-11 17l-4 13v19z
" />
    <glyph glyph-name="Oslash" unicode="&#xd8;" horiz-adv-x="548" 
d="M188 1l-36 6l-8 -19l-6 -2l-40 -7l-2 4l6 20l9 22l-27 13l-27 33l-8 21l-14 57l-5 43l3 182l11 141l14 75l21 42l29 30l35 17l17 6l18 2l34 9h37l7 -2l105 -9l16 -4l13 32l13 5l26 -5l4 -6l-16 -39l39 -13l33 -32l8 -20l12 -24l9 -47v-117l-19 -213l-9 -59l-18 -61
l-9 -15l-37 -39l-18 -7l-44 -12l-93 -8h-83zM225 158l39 -14l43 26l12 46l12 234l-111 -280zM222 512l-5 -225l100 247l-2 8l-39 11l-31 -10l-10 -10z" />
    <glyph glyph-name="Ugrave" unicode="&#xd9;" horiz-adv-x="571" 
d="M264 2l-27 2l-51 10l-54 25l-49 35l-34 71l-19 111l13 439l7 3l57 -3h114l12 -11v-28l-9 -78l-5 -322l5 -40l10 -24l16 -15l37 -8l31 5l15 25l11 82l3 413l12 6l39 -7h137l6 -4l-9 -398l-23 -175l-13 -38l-41 -39l-19 -11l-56 -21l-46 -9l-56 2zM300 855l76 -98v-10
l-95 1l-88 72v12l10 11l44 17h41z" />
    <glyph glyph-name="Uacute" unicode="&#xda;" horiz-adv-x="571" 
d="M264 2l-27 2l-51 10l-54 25l-49 35l-34 71l-19 111l13 439l7 3l57 -3h114l12 -11v-28l-9 -78l-5 -322l5 -40l10 -24l16 -15l37 -8l31 5l15 25l11 82l3 413l12 6l39 -7h137l6 -4l-9 -398l-23 -175l-13 -38l-41 -39l-19 -11l-56 -21l-46 -9l-56 2zM193 757l76 98l12 5h41
l44 -17l10 -11v-12l-88 -72l-95 -1v10z" />
    <glyph glyph-name="Ucircumflex" unicode="&#xdb;" horiz-adv-x="571" 
d="M264 2l-27 2l-51 10l-54 25l-49 35l-34 71l-19 111l13 439l7 3l57 -3h114l12 -11v-28l-9 -78l-5 -322l5 -40l10 -24l16 -15l37 -8l31 5l15 25l11 82l3 413l12 6l39 -7h137l6 -4l-9 -398l-23 -175l-13 -38l-41 -39l-19 -11l-56 -21l-46 -9l-56 2zM132 743l-13 5l4 8
l85 104l17 14l20 2h104l16 -6l27 -25l36 -53l8 -17l14 -12l3 -10l-135 -10l-19 42l-7 19l-4 5l-21 -30l-17 -31l-10 -9z" />
    <glyph glyph-name="Udieresis" unicode="&#xdc;" horiz-adv-x="571" 
d="M264 2l-27 2l-51 10l-54 25l-49 35l-34 71l-19 111l13 439l7 3l57 -3h114l12 -11v-28l-9 -78l-5 -322l5 -40l10 -24l16 -15l37 -8l31 5l15 25l11 82l3 413l12 6l39 -7h137l6 -4l-9 -398l-23 -175l-13 -38l-41 -39l-19 -11l-56 -21l-46 -9l-56 2zM130 815l10 19l11 6h58
l10 -6l2 -13l4 3l6 -7v-35l-3 -36l-7 -12l-8 -4l-61 3l-13 8l-11 17l-4 13v19zM328 817l10 19l11 6h58l10 -6l2 -13l4 3l6 -7v-35l-3 -36l-7 -12l-8 -4l-61 3l-13 8l-11 17l-4 13v19z" />
    <glyph glyph-name="germandbls" unicode="&#xdf;" horiz-adv-x="523" 
d="M47 4l-16 15l3 191h3l-7 16l15 274l12 90l28 44l40 36l62 21l104 4l14 -2l62 -3l38 -12l27 -21l47 -49l8 -20v-80l-12 -52l-16 -42l-25 -35l-34 -32l28 -14l29 -30l26 -36l10 -31v-60l-8 -44l-21 -49l-25 -37l-29 -18l-28 -11l-14 -2l-10 -3l-123 2l20 100l36 12l10 41
v70l-21 33l-37 11v132l16 4l22 24l15 57v50l-4 11l-18 21l-28 11h-3l-20 -15l-14 -18l-8 -38v-302l-1 -8h6v-106h1v-103l-11 -1z" />
    <glyph glyph-name="agrave" unicode="&#xe0;" 
d="M285 -14l-7 6l-9 26l-40 -15l-97 -2l-50 9l-32 28l-16 40l-4 21v33l20 83l38 40l60 39l35 9h91v19l-14 17l-13 6h-53l-58 -11l-39 -20l-13 -9h-22l-3 6l-11 50v55l-3 14v40l34 18l77 16l78 2l35 6l89 -10l48 -30l36 -49l18 -51l-2 -316l-9 -42l-22 -10l-57 -8l-48 -14
h-27zM211 144l15 -5h41l11 3v57h-34l-30 -11l-16 -15v-16zM270 673l76 -98v-10l-95 1l-88 72v12l10 11l44 17h41z" />
    <glyph glyph-name="aacute" unicode="&#xe1;" 
d="M285 -14l-7 6l-9 26l-40 -15l-97 -2l-50 9l-32 28l-16 40l-4 21v33l20 83l38 40l60 39l35 9h91v19l-14 17l-13 6h-53l-58 -11l-39 -20l-13 -9h-22l-3 6l-11 50v55l-3 14v40l34 18l77 16l78 2l35 6l89 -10l48 -30l36 -49l18 -51l-2 -316l-9 -42l-22 -10l-57 -8l-48 -14
h-27zM211 144l15 -5h41l11 3v57h-34l-30 -11l-16 -15v-16zM163 575l76 98l12 5h41l44 -17l10 -11v-12l-88 -72l-95 -1v10z" />
    <glyph glyph-name="acircumflex" unicode="&#xe2;" 
d="M285 -14l-7 6l-9 26l-40 -15l-97 -2l-50 9l-32 28l-16 40l-4 21v33l20 83l38 40l60 39l35 9h91v19l-14 17l-13 6h-53l-58 -11l-39 -20l-13 -9h-22l-3 6l-11 50v55l-3 14v40l34 18l77 16l78 2l35 6l89 -10l48 -30l36 -49l18 -51l-2 -316l-9 -42l-22 -10l-57 -8l-48 -14
h-27zM211 144l15 -5h41l11 3v57h-34l-30 -11l-16 -15v-16zM102 561l-13 5l4 8l85 104l17 14l20 2h104l16 -6l27 -25l36 -53l8 -17l14 -12l3 -10l-135 -10l-19 42l-7 19l-4 5l-21 -30l-17 -31l-10 -9z" />
    <glyph glyph-name="atilde" unicode="&#xe3;" 
d="M285 -14l-7 6l-9 26l-40 -15l-97 -2l-50 9l-32 28l-16 40l-4 21v33l20 83l38 40l60 39l35 9h91v19l-14 17l-13 6h-53l-58 -11l-39 -20l-13 -9h-22l-3 6l-11 50v55l-3 14v40l34 18l77 16l78 2l35 6l89 -10l48 -30l36 -49l18 -51l-2 -316l-9 -42l-22 -10l-57 -8l-48 -14
h-27zM211 144l15 -5h41l11 3v57h-34l-30 -11l-16 -15v-16zM268 569l-44 35l-21 6h-14l-11 -21v-23l-4 -2l-94 1l1 5v74l15 30l30 25l38 15l35 2l21 -2l27 -12l24 -13l29 -29h19l12 23l5 14l100 -4l-22 -99l-8 -17l-11 -10l-39 -11h-50z" />
    <glyph glyph-name="adieresis" unicode="&#xe4;" 
d="M285 -14l-7 6l-9 26l-40 -15l-97 -2l-50 9l-32 28l-16 40l-4 21v33l20 83l38 40l60 39l35 9h91v19l-14 17l-13 6h-53l-58 -11l-39 -20l-13 -9h-22l-3 6l-11 50v55l-3 14v40l34 18l77 16l78 2l35 6l89 -10l48 -30l36 -49l18 -51l-2 -316l-9 -42l-22 -10l-57 -8l-48 -14
h-27zM211 144l15 -5h41l11 3v57h-34l-30 -11l-16 -15v-16zM100 633l10 19l11 6h58l10 -6l2 -13l4 3l6 -7v-35l-3 -36l-7 -12l-8 -4l-61 3l-13 8l-11 17l-4 13v19zM298 635l10 19l11 6h58l10 -6l2 -13l4 3l6 -7v-35l-3 -36l-7 -12l-8 -4l-61 3l-13 8l-11 17l-4 13v19z" />
    <glyph glyph-name="aring" unicode="&#xe5;" 
d="M285 -14l-7 6l-9 26l-40 -15l-97 -2l-50 9l-32 28l-16 40l-4 21v33l20 83l38 40l60 39l35 9h91v19l-14 17l-13 6h-53l-58 -11l-39 -20l-13 -9h-22l-3 6l-11 50v55l-3 14v40l34 18l77 16l78 2l35 6l89 -10l48 -30l36 -49l18 -51l-2 -316l-9 -42l-22 -10l-57 -8l-48 -14
h-27zM211 144l15 -5h41l11 3v57h-34l-30 -11l-16 -15v-16zM285 768l18 -6l26 -4l21 -11l14 -15l12 -9l17 -29v-36l-13 -45l-17 -24l-25 -14l-79 -10l-72 8l-30 23l-18 17l-18 29l2 35l20 44l32 30l41 13zM266 711l-25 -4l-8 -9l-9 -23l1 -8l11 -24l1 -2l20 -7h15l15 5l10 18
l1 16l-7 27z" />
    <glyph glyph-name="ae" unicode="&#xe6;" horiz-adv-x="866" 
d="M526 16l-59 15l-55 51l-31 -20l-67 -38l-85 -21l-97 -2l-50 9l-32 28l-16 40l-4 21v33l20 83l38 40l60 39l35 9h91v19l-14 17l-13 6h-53l-58 -11l-39 -20l-13 -9h-22l-3 6l-11 50v55l-3 14v40l34 18l77 16l78 2l35 6l89 -10l48 -30l28 -38l1 2l30 35l41 19l27 3l20 5
l163 -5l57 -14l31 -22l22 -24l6 -21l4 -88l-1 -2h1l-6 -46l-6 -28l-6 -12l-8 -10l-38 -6l-79 -4l-110 -13l3 -42l6 -16l28 -8l23 3l20 12v22l88 4l18 -4l59 2l2 -6l-3 -43l-4 -10l-10 -35l-11 -12l-43 -30l-32 -15l-31 -3l-37 -6h-133zM211 144l15 -5h41l11 3v57h-34
l-30 -11l-16 -15v-16zM585 302l-1 -6l70 9l-1 7l1 21h-3l-9 22l-24 7l-22 -24z" />
    <glyph glyph-name="ccedilla" unicode="&#xe7;" 
d="M159 8l-59 15l-19 18l-27 36l-13 45l-9 62l-2 56l5 88l10 50l12 27l10 18l31 35l41 19l27 3l20 5l163 -5l48 -14l31 -22l22 -24l6 -21l4 -103l-4 -17l-7 -15l-14 -4h-59l-79 5l-8 5l-3 14l1 21h-3l-9 22l-24 7l-22 -24l-11 -36l-6 -27l7 -78l6 -16l28 -8l15 11l16 14
l7 30l24 8h69l9 -4l55 -4l2 -6l1 -75l-4 -10l-10 -35l-11 -12l-34 -30l-32 -15l-31 -3l-37 -6h-11l1 -20l3 -28l53 -8l26 -12l14 -16l6 -34l-6 -32v-10l-10 -24l-40 -36l-42 -19l-92 -17l-12 6l-8 12v12l-4 60l32 4l74 2l8 2l20 10l2 16l-6 14l-10 12l-56 4h-60l-3 102h-12z
" />
    <glyph glyph-name="egrave" unicode="&#xe8;" horiz-adv-x="498" 
d="M158 8l-59 15l-18 18l-27 36l-13 45l-9 62l-2 56l5 108l10 35l12 27l10 18l30 35l41 19l27 3l20 5l163 -5l57 -14l31 -22l22 -24l6 -21l4 -88l-1 -2h1l-6 -46l-6 -28l-6 -12l-8 -10l-38 -6l-79 -4l-110 -13l3 -42l6 -16l28 -8l23 3l20 12v22l88 4l18 -4l59 2l2 -6l-3 -43
l-4 -10l-10 -35l-11 -12l-43 -30l-32 -15l-31 -3l-37 -6h-133zM217 294l-1 -6l70 9l-1 7l1 21h-3l-9 22l-24 7l-22 -24zM268 645l76 -98v-10l-95 1l-88 72v12l10 11l44 17h41z" />
    <glyph glyph-name="eacute" unicode="&#xe9;" horiz-adv-x="498" 
d="M158 8l-59 15l-18 18l-27 36l-13 45l-9 62l-2 56l5 108l10 35l12 27l10 18l30 35l41 19l27 3l20 5l163 -5l57 -14l31 -22l22 -24l6 -21l4 -88l-1 -2h1l-6 -46l-6 -28l-6 -12l-8 -10l-38 -6l-79 -4l-110 -13l3 -42l6 -16l28 -8l23 3l20 12v22l88 4l18 -4l59 2l2 -6l-3 -43
l-4 -10l-10 -35l-11 -12l-43 -30l-32 -15l-31 -3l-37 -6h-133zM217 294l-1 -6l70 9l-1 7l1 21h-3l-9 22l-24 7l-22 -24zM161 547l76 98l12 5h41l44 -17l10 -11v-12l-88 -72l-95 -1v10z" />
    <glyph glyph-name="ecircumflex" unicode="&#xea;" horiz-adv-x="498" 
d="M158 8l-59 15l-18 18l-27 36l-13 45l-9 62l-2 56l5 108l10 35l12 27l10 18l30 35l41 19l27 3l20 5l163 -5l57 -14l31 -22l22 -24l6 -21l4 -88l-1 -2h1l-6 -46l-6 -28l-6 -12l-8 -10l-38 -6l-79 -4l-110 -13l3 -42l6 -16l28 -8l23 3l20 12v22l88 4l18 -4l59 2l2 -6l-3 -43
l-4 -10l-10 -35l-11 -12l-43 -30l-32 -15l-31 -3l-37 -6h-133zM217 294l-1 -6l70 9l-1 7l1 21h-3l-9 22l-24 7l-22 -24zM100 533l-13 5l4 8l85 104l17 14l20 2h104l16 -6l27 -25l36 -53l8 -17l14 -12l3 -10l-135 -10l-19 42l-7 19l-4 5l-21 -30l-17 -31l-10 -9z" />
    <glyph glyph-name="edieresis" unicode="&#xeb;" horiz-adv-x="498" 
d="M158 8l-59 15l-18 18l-27 36l-13 45l-9 62l-2 56l5 108l10 35l12 27l10 18l30 35l41 19l27 3l20 5l163 -5l57 -14l31 -22l22 -24l6 -21l4 -88l-1 -2h1l-6 -46l-6 -28l-6 -12l-8 -10l-38 -6l-79 -4l-110 -13l3 -42l6 -16l28 -8l23 3l20 12v22l88 4l18 -4l59 2l2 -6l-3 -43
l-4 -10l-10 -35l-11 -12l-43 -30l-32 -15l-31 -3l-37 -6h-133zM217 294l-1 -6l70 9l-1 7l1 21h-3l-9 22l-24 7l-22 -24zM98 605l10 19l11 6h58l10 -6l2 -13l4 3l6 -7v-35l-3 -36l-7 -12l-8 -4l-61 3l-13 8l-11 17l-4 13v19zM296 607l10 19l11 6h58l10 -6l2 -13l4 3l6 -7v-35
l-3 -36l-7 -12l-8 -4l-61 3l-13 8l-11 17l-4 13v19z" />
    <glyph glyph-name="igrave" unicode="&#xec;" horiz-adv-x="253" 
d="M36 11l2 459l-2 22l14 7h88l58 -11l16 -8l4 -11l7 -434l-4 -13l-8 -14h-168zM138 701l76 -98v-10l-95 1l-88 72v12l10 11l44 17h41z" />
    <glyph glyph-name="iacute" unicode="&#xed;" horiz-adv-x="253" 
d="M36 11l2 459l-2 22l14 7h88l58 -11l16 -8l4 -11l7 -434l-4 -13l-8 -14h-168zM31 603l76 98l12 5h41l44 -17l10 -11v-12l-88 -72l-95 -1v10z" />
    <glyph glyph-name="icircumflex" unicode="&#xee;" horiz-adv-x="253" 
d="M36 11l2 459l-2 22l14 7h88l58 -11l16 -8l4 -11l7 -434l-4 -13l-8 -14h-168zM-30 589l-13 5l4 8l85 104l17 14l20 2h104l16 -6l27 -25l36 -53l8 -17l14 -12l3 -10l-135 -10l-19 42l-7 19l-4 5l-21 -30l-17 -31l-10 -9z" />
    <glyph glyph-name="idieresis" unicode="&#xef;" horiz-adv-x="253" 
d="M36 11l2 459l-2 22l14 7h88l58 -11l16 -8l4 -11l7 -434l-4 -13l-8 -14h-168zM-32 661l10 19l11 6h58l10 -6l2 -13l4 3l6 -7v-35l-3 -36l-7 -12l-8 -4l-61 3l-13 8l-11 17l-4 13v19zM166 663l10 19l11 6h58l10 -6l2 -13l4 3l6 -7v-35l-3 -36l-7 -12l-8 -4l-61 3l-13 8
l-11 17l-4 13v19z" />
    <glyph glyph-name="ntilde" unicode="&#xf1;" horiz-adv-x="509" 
d="M225 320l-7 -320l-72 4l-71 -1l-15 1l-26 -1l-4 14l2 6l4 420l-2 19l7 3l35 2l28 -4l111 6l2 -3l-2 -33l48 22l50 2l48 -6l44 -18l36 -34l30 -67l8 -49l-4 -262l-3 -19l-77 7l-105 -9l1 3v263l-14 29l-17 16l-25 10zM260 525l-44 35l-21 6h-14l-11 -21v-23l-4 -2l-94 1
l1 5v74l15 30l30 25l38 15l35 2l21 -2l27 -12l24 -13l29 -29h19l12 23l5 14l100 -4l-22 -99l-8 -17l-11 -10l-39 -11h-50z" />
    <glyph glyph-name="ograve" unicode="&#xf2;" horiz-adv-x="527" 
d="M497 334l-4 -153l-8 -47l-23 -52l-9 -15l-37 -39l-18 -7l-25 -12l-106 -8h-83l-38 7l-60 30l-27 33l-8 21l-14 57l-5 43v22h-2l5 103l14 75l21 42l29 30l29 17l17 6l18 2l34 9h37l7 -2l118 -9l30 -7l46 -23l33 -32l8 -20l12 -24zM221 158l39 -14l43 26l12 46v6h-1l2 30
l-8 68l-8 24l-39 11l-31 -10l-10 -10l-8 -21l-1 -50h1l-1 -82zM282 657l76 -98v-10l-95 1l-88 72v12l10 11l44 17h41z" />
    <glyph glyph-name="oacute" unicode="&#xf3;" horiz-adv-x="527" 
d="M497 334l-4 -153l-8 -47l-23 -52l-9 -15l-37 -39l-18 -7l-25 -12l-106 -8h-83l-38 7l-60 30l-27 33l-8 21l-14 57l-5 43v22h-2l5 103l14 75l21 42l29 30l29 17l17 6l18 2l34 9h37l7 -2l118 -9l30 -7l46 -23l33 -32l8 -20l12 -24zM221 158l39 -14l43 26l12 46v6h-1l2 30
l-8 68l-8 24l-39 11l-31 -10l-10 -10l-8 -21l-1 -50h1l-1 -82zM175 559l76 98l12 5h41l44 -17l10 -11v-12l-88 -72l-95 -1v10z" />
    <glyph glyph-name="ocircumflex" unicode="&#xf4;" horiz-adv-x="527" 
d="M497 334l-4 -153l-8 -47l-23 -52l-9 -15l-37 -39l-18 -7l-25 -12l-106 -8h-83l-38 7l-60 30l-27 33l-8 21l-14 57l-5 43v22h-2l5 103l14 75l21 42l29 30l29 17l17 6l18 2l34 9h37l7 -2l118 -9l30 -7l46 -23l33 -32l8 -20l12 -24zM221 158l39 -14l43 26l12 46v6h-1l2 30
l-8 68l-8 24l-39 11l-31 -10l-10 -10l-8 -21l-1 -50h1l-1 -82zM114 545l-13 5l4 8l85 104l17 14l20 2h104l16 -6l27 -25l36 -53l8 -17l14 -12l3 -10l-135 -10l-19 42l-7 19l-4 5l-21 -30l-17 -31l-10 -9z" />
    <glyph glyph-name="otilde" unicode="&#xf5;" horiz-adv-x="527" 
d="M497 334l-4 -153l-8 -47l-23 -52l-9 -15l-37 -39l-18 -7l-25 -12l-106 -8h-83l-38 7l-60 30l-27 33l-8 21l-14 57l-5 43v22h-2l5 103l14 75l21 42l29 30l29 17l17 6l18 2l34 9h37l7 -2l118 -9l30 -7l46 -23l33 -32l8 -20l12 -24zM221 158l39 -14l43 26l12 46v6h-1l2 30
l-8 68l-8 24l-39 11l-31 -10l-10 -10l-8 -21l-1 -50h1l-1 -82zM280 553l-44 35l-21 6h-14l-11 -21v-23l-4 -2l-94 1l1 5v74l15 30l30 25l38 15l35 2l21 -2l27 -12l24 -13l29 -29h19l12 23l5 14l100 -4l-22 -99l-8 -17l-11 -10l-39 -11h-50z" />
    <glyph glyph-name="odieresis" unicode="&#xf6;" horiz-adv-x="527" 
d="M497 334l-4 -153l-8 -47l-23 -52l-9 -15l-37 -39l-18 -7l-25 -12l-106 -8h-83l-38 7l-60 30l-27 33l-8 21l-14 57l-5 43v22h-2l5 103l14 75l21 42l29 30l29 17l17 6l18 2l34 9h37l7 -2l118 -9l30 -7l46 -23l33 -32l8 -20l12 -24zM221 158l39 -14l43 26l12 46v6h-1l2 30
l-8 68l-8 24l-39 11l-31 -10l-10 -10l-8 -21l-1 -50h1l-1 -82zM112 617l10 19l11 6h58l10 -6l2 -13l4 3l6 -7v-35l-3 -36l-7 -12l-8 -4l-61 3l-13 8l-11 17l-4 13v19zM310 619l10 19l11 6h58l10 -6l2 -13l4 3l6 -7v-35l-3 -36l-7 -12l-8 -4l-61 3l-13 8l-11 17l-4 13v19z
" />
    <glyph glyph-name="oslash" unicode="&#xf8;" horiz-adv-x="527" 
d="M497 334l-4 -153l-8 -47l-23 -52l-9 -15l-37 -39l-18 -7l-25 -12l-106 -8h-83l-8 1l-8 -20l-6 -2l-40 -7l-2 4l6 20l7 17l-47 24l-27 33l-8 21l-14 57l-5 43v22h-2l5 103l14 75l21 42l29 30l29 17l17 6l18 2l34 9h37l7 -2l85 -7l23 45l13 5l26 -5l4 -6l-21 -44l18 -4
l46 -23l33 -32l8 -20l12 -24zM308 320l-1 3l-68 -172l21 -7l43 26l12 46v6h-1l2 30zM212 264l-1 -57l59 145l-9 3l-31 -10l-10 -10l-8 -21l-1 -50h1z" />
    <glyph glyph-name="ugrave" unicode="&#xf9;" horiz-adv-x="499" 
d="M283 149l7 320l72 -4l62 1l15 -1l26 1l4 -14l-2 -6l-4 -420l2 -19l-7 -3l-35 -2l-19 4l-111 -6l-2 3l2 33l-48 -22l-50 -2l-48 6l-33 18l-46 34l-30 67l-8 49l4 262l3 19l87 -7l94 9l-1 -3v-263l14 -29l17 -16l25 -10zM268 633l76 -98v-10l-95 1l-88 72v12l10 11l44 17
h41z" />
    <glyph glyph-name="uacute" unicode="&#xfa;" horiz-adv-x="499" 
d="M283 149l7 320l72 -4l62 1l15 -1l26 1l4 -14l-2 -6l-4 -420l2 -19l-7 -3l-35 -2l-19 4l-111 -6l-2 3l2 33l-48 -22l-50 -2l-48 6l-33 18l-46 34l-30 67l-8 49l4 262l3 19l87 -7l94 9l-1 -3v-263l14 -29l17 -16l25 -10zM161 535l76 98l12 5h41l44 -17l10 -11v-12l-88 -72
l-95 -1v10z" />
    <glyph glyph-name="ucircumflex" unicode="&#xfb;" horiz-adv-x="499" 
d="M283 149l7 320l72 -4l62 1l15 -1l26 1l4 -14l-2 -6l-4 -420l2 -19l-7 -3l-35 -2l-19 4l-111 -6l-2 3l2 33l-48 -22l-50 -2l-48 6l-33 18l-46 34l-30 67l-8 49l4 262l3 19l87 -7l94 9l-1 -3v-263l14 -29l17 -16l25 -10zM100 521l-13 5l4 8l85 104l17 14l20 2h104l16 -6
l27 -25l36 -53l8 -17l14 -12l3 -10l-135 -10l-19 42l-7 19l-4 5l-21 -30l-17 -31l-10 -9z" />
    <glyph glyph-name="udieresis" unicode="&#xfc;" horiz-adv-x="499" 
d="M283 149l7 320l72 -4l62 1l15 -1l26 1l4 -14l-2 -6l-4 -420l2 -19l-7 -3l-35 -2l-19 4l-111 -6l-2 3l2 33l-48 -22l-50 -2l-48 6l-33 18l-46 34l-30 67l-8 49l4 262l3 19l87 -7l94 9l-1 -3v-263l14 -29l17 -16l25 -10zM98 593l10 19l11 6h58l10 -6l2 -13l4 3l6 -7v-35
l-3 -36l-7 -12l-8 -4l-61 3l-13 8l-11 17l-4 13v19zM296 595l10 19l11 6h58l10 -6l2 -13l4 3l6 -7v-35l-3 -36l-7 -12l-8 -4l-61 3l-13 8l-11 17l-4 13v19z" />
    <glyph glyph-name="Euro" unicode="&#x20ac;" horiz-adv-x="553" 
d="M338 264h-81l3 -52l7 -17l8 -8h12l23 5l23 8l1 35l40 -7l62 -2l68 2l12 -4h1l-20 -113l-17 -41l-13 -20l-24 -22l-31 -14l-4 -3l-31 -12l-77 -4l-11 -3h-69l-61 19l-35 24l-31 42l-12 32l-9 40l-2 116h-33l-7 42l5 24l8 4h25v31h-30l-8 42l5 25l9 4h22v13l14 80l15 45
l22 40l32 36l21 21l71 25l51 2l64 -2l10 -8l44 -12l34 -17l23 -20l15 -10l10 -25l9 -17l7 -34l5 -11l9 -40l1 -28l-155 -1l-30 -4l-1 22l-17 28l-18 6l-22 -2l-13 -22l-7 -36l-1 -29l171 1l8 -1l8 -20l-7 -50l-6 -3l-176 1v-30l128 1l7 -1l6 -20l-5 -49l-6 -2h-49z" />
    </font>
</defs>
</svg>
